<svg width="15" height="20" viewBox="0 0 15 20" fill="none" xmlns="http://www.w3.org/2000/svg">
<path d="M14.4635 19.8857C14.3017 19.9698 14.1201 20.0083 13.9381 19.997C13.7561 19.9858 13.5807 19.9251 13.4305 19.8217L0.430511 10.8217C0.297673 10.7296 0.189119 10.6068 0.114141 10.4636C0.0391644 10.3205 0 10.1613 0 9.99966C0 9.83806 0.0391644 9.67886 0.114141 9.53571C0.189119 9.39255 0.297673 9.26969 0.430511 9.17766L13.4305 0.177663C13.5805 0.0738554 13.7561 0.0130678 13.9382 0.00188176C14.1203 -0.00930423 14.302 0.0295378 14.4636 0.114202C14.6252 0.198866 14.7605 0.326126 14.855 0.482203C14.9495 0.638279 14.9995 0.817225 14.9995 0.999663V18.9997C14.9995 19.1822 14.9496 19.3613 14.8551 19.5174C14.7606 19.6736 14.6252 19.801 14.4635 19.8857Z" fill="white"/>
</svg>
