<svg width="51" height="50" viewBox="0 0 51 50" fill="none" xmlns="http://www.w3.org/2000/svg">
<rect width="51" height="50" fill="black"/>
<g filter="url(#filter0_d)">
<path d="M37.7414 19.3707C37.7414 22.6516 36.438 25.7981 34.1181 28.1181C31.7981 30.438 28.6516 31.7414 25.3707 31.7414C22.0898 31.7414 18.9432 30.438 16.6233 28.1181C14.3033 25.7981 13 22.6516 13 19.3707C13 16.0898 14.3033 12.9432 16.6233 10.6233C18.9432 8.30334 22.0898 7 25.3707 7C28.6516 7 31.7981 8.30334 34.1181 10.6233C36.438 12.9432 37.7414 16.0898 37.7414 19.3707V19.3707ZM31.6024 14.6853C31.492 14.5752 31.3605 14.4886 31.2157 14.4305C31.071 14.3724 30.9161 14.3441 30.7602 14.3473C30.6043 14.3505 30.4506 14.385 30.3084 14.449C30.1661 14.5129 30.0383 14.6048 29.9324 14.7193L24.562 21.5618L21.3255 18.3238C21.1056 18.119 20.8148 18.0074 20.5144 18.0127C20.2139 18.018 19.9273 18.1398 19.7148 18.3522C19.5023 18.5647 19.3806 18.8514 19.3753 19.1518C19.37 19.4523 19.4815 19.7431 19.6864 19.9629L23.778 24.0561C23.8882 24.1661 24.0194 24.2528 24.1639 24.311C24.3084 24.3692 24.4631 24.3977 24.6188 24.3948C24.7745 24.3919 24.928 24.3577 25.0702 24.2942C25.2124 24.2307 25.3404 24.1392 25.4465 24.0252L31.6194 16.3089C31.8299 16.0901 31.9461 15.7975 31.9432 15.494C31.9404 15.1904 31.8185 14.9001 31.604 14.6853H31.6024Z" fill="#52FF00"/>
</g>
<path d="M10.9284 40.795L9.75407 40.381C9.32039 40.2233 9.01062 40.0093 8.82475 39.739C8.63889 39.4686 8.54596 39.1138 8.54596 38.6745C8.54596 38.0324 8.70085 37.6044 9.01062 37.3903C9.32602 37.1707 9.87797 37.0609 10.6665 37.0609C11.4099 37.0609 12.0492 37.1369 12.5842 37.289L12.4998 38.1676C12.0098 38.1507 11.4015 38.1422 10.6749 38.1422C10.337 38.1422 10.1117 38.1732 9.99907 38.2352C9.88642 38.2915 9.8301 38.4379 9.8301 38.6745C9.8301 38.866 9.87234 39.004 9.95682 39.0884C10.0413 39.1729 10.2018 39.2546 10.4384 39.3334L11.5451 39.7136C11.9957 39.8713 12.3139 40.0882 12.4998 40.3641C12.6856 40.6345 12.7785 40.9893 12.7785 41.4286C12.7785 42.082 12.6208 42.5269 12.3054 42.7634C11.99 42.9944 11.4268 43.1098 10.6158 43.1098C9.95682 43.1098 9.28941 43.0366 8.61355 42.8902L8.68958 41.9609C9.88924 41.989 10.5313 42.0031 10.6158 42.0031C10.9594 42.0031 11.1875 41.9665 11.3001 41.8933C11.4184 41.8201 11.4775 41.668 11.4775 41.4371C11.4775 41.2399 11.4381 41.102 11.3592 41.0231C11.2804 40.9386 11.1368 40.8626 10.9284 40.795ZM16.2679 41.3357H14.7642C14.8036 41.6398 14.8937 41.8454 15.0345 41.9524C15.1809 42.0538 15.4203 42.1045 15.7526 42.1045C16.1975 42.1045 16.7157 42.0735 17.3071 42.0116L17.4254 42.7888C16.9917 42.9972 16.3862 43.1014 15.609 43.1014C14.8261 43.1014 14.2685 42.9324 13.9362 42.5945C13.6039 42.2566 13.4378 41.699 13.4378 40.9217C13.4378 40.1051 13.5983 39.5334 13.9193 39.2067C14.246 38.8801 14.7923 38.7167 15.5583 38.7167C16.2511 38.7167 16.7523 38.8378 17.0621 39.08C17.3719 39.3166 17.5296 39.6798 17.5352 40.1698C17.5352 40.5584 17.4338 40.8513 17.2311 41.0484C17.0339 41.2399 16.7129 41.3357 16.2679 41.3357ZM14.7388 40.5838H15.9216C16.0736 40.5838 16.175 40.5472 16.2257 40.474C16.282 40.4007 16.3102 40.2937 16.3102 40.1529C16.3102 39.9558 16.2595 39.8206 16.1581 39.7474C16.0567 39.6686 15.8709 39.6291 15.6005 39.6291C15.2795 39.6291 15.0598 39.6939 14.9416 39.8234C14.8233 39.9474 14.7557 40.2008 14.7388 40.5838ZM19.5929 37.0862V41.6398C19.5929 41.9214 19.7506 42.0622 20.066 42.0622H20.404L20.5476 42.9324C20.3336 43.0451 20.0013 43.1014 19.5507 43.1014C19.179 43.1014 18.8861 43.0028 18.6721 42.8057C18.4581 42.6029 18.351 42.3185 18.351 41.9524V37.0862H19.5929ZM23.7592 41.3357H22.2554C22.2948 41.6398 22.3849 41.8454 22.5257 41.9524C22.6722 42.0538 22.9116 42.1045 23.2438 42.1045C23.6888 42.1045 24.207 42.0735 24.7983 42.0116L24.9166 42.7888C24.4829 42.9972 23.8775 43.1014 23.1002 43.1014C22.3174 43.1014 21.7598 42.9324 21.4275 42.5945C21.0952 42.2566 20.929 41.699 20.929 40.9217C20.929 40.1051 21.0895 39.5334 21.4106 39.2067C21.7372 38.8801 22.2836 38.7167 23.0495 38.7167C23.7423 38.7167 24.2436 38.8378 24.5533 39.08C24.8631 39.3166 25.0208 39.6798 25.0264 40.1698C25.0264 40.5584 24.9251 40.8513 24.7223 41.0484C24.5252 41.2399 24.2041 41.3357 23.7592 41.3357ZM22.2301 40.5838H23.4128C23.5649 40.5838 23.6663 40.5472 23.717 40.474C23.7733 40.4007 23.8014 40.2937 23.8014 40.1529C23.8014 39.9558 23.7507 39.8206 23.6494 39.7474C23.548 39.6686 23.3621 39.6291 23.0918 39.6291C22.7707 39.6291 22.5511 39.6939 22.4328 39.8234C22.3145 39.9474 22.247 40.2008 22.2301 40.5838ZM29.2469 42.0116L29.3568 42.8226C28.9287 43.0084 28.3909 43.1014 27.7431 43.1014C26.9772 43.1014 26.4365 42.938 26.1211 42.6114C25.8113 42.2791 25.6564 41.713 25.6564 40.9133C25.6564 40.1079 25.8141 39.5418 26.1295 39.2152C26.4449 38.8829 26.9884 38.7167 27.76 38.7167C28.3909 38.7167 28.9034 38.804 29.2976 38.9786L29.1625 39.7559C28.5542 39.7446 28.1571 39.739 27.9713 39.739C27.5883 39.739 27.3236 39.8206 27.1771 39.984C27.0363 40.1473 26.9659 40.4571 26.9659 40.9133C26.9659 41.3695 27.0363 41.6793 27.1771 41.8426C27.3236 42.0059 27.5883 42.0876 27.9713 42.0876C28.4613 42.0876 28.8865 42.0622 29.2469 42.0116ZM31.7378 39.6714V41.6398C31.7378 41.7975 31.7716 41.9074 31.8392 41.9693C31.9068 42.0313 32.025 42.0622 32.194 42.0622H32.7262L32.8614 42.9324C32.5404 43.0451 32.1489 43.1014 31.6871 43.1014C31.3098 43.1014 31.0169 42.9972 30.8085 42.7888C30.6001 42.5748 30.4959 42.2791 30.4959 41.9017V39.6714H29.7609V38.8772L30.4959 38.835V37.6691H31.7378V38.835H32.8952V39.6714H31.7378ZM36.2419 41.3357H34.7381C34.7775 41.6398 34.8676 41.8454 35.0084 41.9524C35.1548 42.0538 35.3942 42.1045 35.7265 42.1045C36.1714 42.1045 36.6896 42.0735 37.281 42.0116L37.3993 42.7888C36.9656 42.9972 36.3601 43.1014 35.5829 43.1014C34.8 43.1014 34.2424 42.9324 33.9101 42.5945C33.5778 42.2566 33.4117 41.699 33.4117 40.9217C33.4117 40.1051 33.5722 39.5334 33.8932 39.2067C34.2199 38.8801 34.7662 38.7167 35.5322 38.7167C36.225 38.7167 36.7262 38.8378 37.036 39.08C37.3458 39.3166 37.5035 39.6798 37.5091 40.1698C37.5091 40.5584 37.4077 40.8513 37.205 41.0484C37.0078 41.2399 36.6868 41.3357 36.2419 41.3357ZM34.7127 40.5838H35.8955C36.0475 40.5838 36.1489 40.5472 36.1996 40.474C36.2559 40.4007 36.2841 40.2937 36.2841 40.1529C36.2841 39.9558 36.2334 39.8206 36.132 39.7474C36.0306 39.6686 35.8448 39.6291 35.5744 39.6291C35.2534 39.6291 35.0337 39.6939 34.9155 39.8234C34.7972 39.9474 34.7296 40.2008 34.7127 40.5838ZM42.3041 37.0862V43H41.3156L41.2143 42.3917C40.8144 42.8648 40.2849 43.1014 39.626 43.1014C39.1078 43.1014 38.7305 42.9155 38.4939 42.5438C38.263 42.1664 38.1475 41.6117 38.1475 40.8795C38.1475 40.0797 38.2771 39.5193 38.5362 39.1983C38.7952 38.8772 39.1979 38.7167 39.7443 38.7167C40.2793 38.7167 40.7299 38.8406 41.096 39.0884C41.0678 38.7787 41.0537 38.4886 41.0537 38.2183V37.0862H42.3041ZM41.0537 41.7328V39.8066C40.6764 39.6995 40.3807 39.646 40.1667 39.646C39.8851 39.646 39.6907 39.7249 39.5837 39.8826C39.4824 40.0403 39.4317 40.3698 39.4317 40.871C39.4317 41.3498 39.4824 41.6708 39.5837 41.8341C39.6851 41.9918 39.8653 42.0707 40.1244 42.0707C40.299 42.0707 40.4483 42.0482 40.5722 42.0031C40.6961 41.9524 40.8566 41.8623 41.0537 41.7328Z" fill="white"/>
<defs>
<filter id="filter0_d" x="10.5862" y="4.58621" width="29.569" height="29.569" filterUnits="userSpaceOnUse" color-interpolation-filters="sRGB">
<feFlood flood-opacity="0" result="BackgroundImageFix"/>
<feColorMatrix in="SourceAlpha" type="matrix" values="0 0 0 0 0 0 0 0 0 0 0 0 0 0 0 0 0 0 127 0"/>
<feOffset/>
<feGaussianBlur stdDeviation="1.2069"/>
<feColorMatrix type="matrix" values="0 0 0 0 0 0 0 0 0 0 0 0 0 0 0 0 0 0 0.25 0"/>
<feBlend mode="normal" in2="BackgroundImageFix" result="effect1_dropShadow"/>
<feBlend mode="normal" in="SourceGraphic" in2="effect1_dropShadow" result="shape"/>
</filter>
</defs>
</svg>
