<svg id="bright-moon_svg__svg" version="1.1" xmlns="http://www.w3.org/2000/svg" width="400" height="400" viewBox="0 0 400 400">
    <g id="bright-moon_svg__svgg" stroke="none" fill-rule="evenodd">
        <path id="bright-moon_svg__path0" d="M198.4 104.872c-.77.215-3.003.738-4.962 1.161-1.958.424-3.758.933-4 1.13-.241.197-1.248.571-2.238.831-1.9.498-4.159 1.438-7.3 3.038-1.045.532-2.089.968-2.319.968-.375 0-4.151 2.046-7.75 4.2-8.686 5.198-20.178 16.187-25.678 24.555l-2.625 4c-.809 1.235-1.484 2.457-1.5 2.716-.015.26-.253.717-.528 1.017-1.022 1.114-5.497 10.858-5.502 11.979-.002.293-.274 1.053-.605 1.688-.332.636-.972 2.526-1.424 4.2-.785 2.91-1.099 4.346-2.631 12.045-.82 4.116-1.203 18.145-.602 22 1.272 8.154 2.03 12.325 2.415 13.308.239.609.713 2.307 1.053 3.772.34 1.466.775 2.857.966 3.092.192.236.615 1.332.941 2.437.874 2.967 3.418 8.127 4.204 8.53.377.193 1.445.467 2.373.609 4.633.707 11.953 6.239 13.556 10.244.811 2.028 2.434 2.184 5.285.508 3.112-1.83 11.155-1.669 15.017.3 4.879 2.488 8.962 7.609 9.639 12.09.577 3.826.64 3.961 2.13 4.584 5.51 2.302 9.684 8.103 10.004 13.906.211 3.825.388 4.104 2.814 4.439 1.027.141 2.857.493 4.067.781 9.149 2.18 27.049.325 39.4-4.081 5.262-1.877 14.277-6.268 17.414-8.481.982-.693 2.703-1.865 3.824-2.604 11.678-7.704 25.206-25.077 30.322-38.941.303-.821.822-2.213 1.153-3.093 3.709-9.855 3.64-13.771-.179-10.163-1.99 1.88-6.784 5.818-8.493 6.977-4.138 2.807-5.698 3.771-6.112 3.778-.26.004-.71.241-1 .525-.665.65-5.206 2.814-7.329 3.493-.88.281-1.96.737-2.4 1.012-.44.276-1.61.629-2.6.784-.99.156-2.43.544-3.2.862-5.382 2.222-27.012 2.432-32.262.314-.694-.28-2.314-.727-3.6-.992s-3.006-.822-3.822-1.236c-.816-.415-1.732-.754-2.036-.754-1.464 0-10.942-5.302-15.428-8.63-10.539-7.82-17.746-17.038-23.431-29.969-11.319-25.75-4.915-57.465 15.808-78.28 3.219-3.232 4.48-4.747 4.082-4.9-.843-.323-3.302-.197-4.911.251m-74.036 2.428c-.784 1.52-2.705 3.053-4.17 3.328-1.704.319-1.796 1.08-.361 2.994.901 1.203 1.003 1.641.799 3.454-.275 2.446.154 2.908 1.626 1.75 1.093-.86 2.909-1.074 4.068-.481.371.189 1.144.456 1.718.593l1.044.249-.37-2.039c-.323-1.778-.271-2.15.409-2.894 1.48-1.621 2.214-3.454 1.383-3.456-2.3-.007-3.783-.861-4.564-2.626-.904-2.045-.961-2.076-1.582-.872m67.253 4.731c.606 1.134.263 1.813-1.085 2.145-1.076.266-2.139.71-6.732 2.814-4.029 1.846-4.831 2.246-6.4 3.192a125.41 125.41 0 0 1-3.027 1.762c-.784.439-1.662 1.081-1.949 1.427-1.378 1.66-4.011.32-2.742-1.396 1.737-2.349 14.163-9.062 18.918-10.22 2.671-.65 2.513-.665 3.017.276m30.747 13.669c-.88 1.706-2.122 2.716-3.641 2.959-1.809.289-2.072 1.517-.698 3.264.636.808.803 1.531.727 3.157-.123 2.664-.069 2.704 2.246 1.679 1.817-.803 1.997-.814 3.276-.204 2.487 1.186 2.993.94 2.694-1.31-.211-1.59-.109-2.168.546-3.1 1.385-1.969 1.498-3.345.274-3.345-1.698 0-3.292-1.078-3.841-2.596-.591-1.635-.942-1.747-1.583-.504m-61.385 6.4c-.156.715-1.296 2.502-2.532 3.971-1.236 1.47-2.877 3.54-3.647 4.6-.77 1.061-1.549 2.109-1.73 2.329-1.176 1.425-7.07 12.942-7.07 13.814 0 .335-.269.992-.597 1.461-.329.469-.883 2.082-1.231 3.585-.349 1.503-.803 2.936-1.009 3.184-.206.248-.646 2.41-.979 4.804-.769 5.54-2.531 9.042-3.649 7.253-.457-.733-.294-4.634.282-6.707.273-.987.813-3.234 1.198-4.994 1.291-5.897 6.307-17.858 9.142-21.8.396-.55 1.241-1.81 1.879-2.8 3.531-5.48 7.623-10 9.054-10 1.116 0 1.16.064.889 1.3m43.839 102.877c1.914 3.888 3.667 5.023 7.753 5.023 2.566 0 2.255 2.51-.649 5.236l-2.029 1.905.279 3.944c.388 5.467-.034 5.882-3.967 3.903-3.372-1.696-4.292-1.72-7.205-.188-4.124 2.169-5.344 1.505-4.642-2.525.746-4.289.66-4.67-1.587-6.989-3.695-3.813-3.445-5.033 1.123-5.482 3.322-.326 4.707-1.456 6.205-5.06.551-1.327 1.113-2.019 1.847-2.272 1.389-.48 1.414-.458 2.872 2.505m-3.107 4.723a93.065 93.065 0 0 0-1.692 1.8c-.466.512-1.294.903-1.919.906-2.138.012-2.35.548-.962 2.435 1.029 1.4 1.262 2.095 1.262 3.771 0 2.416.243 2.781 1.368 2.051 1.238-.802 3.008-1.03 4.357-.559 1.431.498 2.408-.434 2.031-1.938-.164-.653.221-1.51 1.39-3.093l1.617-2.189-2.281-.542c-2.026-.481-2.364-.711-3.015-2.042-.857-1.754-.999-1.794-2.156-.6" fill="#ebb622"/>
        <path id="bright-moon_svg__path1" d="M226.114 54.267c-.836.881-1.168.933-5.9.933H215.2v1c0 .988-.04 1-3.4 1-2.756 0-3.4.114-3.4.6 0 .33-.255.6-.567.6-.311 0-.628.184-.703.409-.075.225-.969.446-1.988.491-1.668.075-1.842.173-1.752.991.093.845-.052.909-2.045.909-2.021 0-2.145.058-2.145 1 0 .933-.133 1-2 1-1.854 0-2 .071-2 .977 0 .863-.198.991-1.7 1.1-1.313.095-1.79.328-2.095 1.023-.242.552-.745.9-1.3.9-.699 0-.905.228-.905 1 0 .852-.192 1.007-1.3 1.046-2.335.083-2.5.145-2.501.936-.001.505-.356.866-1 1.017-.631.147-1.046.56-1.127 1.117-.092.634-.402.884-1.1.884-.77 0-.972.208-.972 1 0 .8-.2 1-1 1s-1 .2-1 1-.2 1-1 1-1 .2-1 1-.2 1-1 1-1 .2-1 1-.2 1-1 1c-.792 0-1 .202-1 .972 0 .704-.249 1.008-.9 1.1-.578.082-.946.45-1.028 1.028-.092.651-.396.9-1.1.9-.805 0-.972.199-.972 1.153 0 .812-.234 1.215-.789 1.36-.56.146-.865.682-1.051 1.847-.219 1.37-.414 1.64-1.185 1.64-.686 0-.954.259-1.048 1.012-.07.557-.221.962-.337.9-.533-.285-1.446 1.173-1.531 2.446-.112 1.652-.121 1.666-1.186 1.746-.45.034-.809.16-.798.279.221 2.436-.13 3.617-1.075 3.617-.933 0-1 .133-1 2 0 1.954-.205 2.215-1.627 2.072-.191-.02-.382 1.603-.513 4.383-.02.403-.255.568-.615.43-.412-.158-.511-.033-.335.425.176.457.078.583-.33.427-.464-.178-.58.226-.58 2.02v2.243h-3.424c-2.013 0-3.328-.154-3.193-.373.656-1.061-1.592-1.627-6.461-1.627-5.132 0-5.11-.006-8.909 2.363-.672.419-.675 4.4-.005 5.652 1.654 3.091-3.323 4.97-5.515 2.081-.727-.958-5.19-.979-5.724-.026-1.325 2.364-5.947 1.699-5.963-.858-.024-3.82-1.619-6.341-2.601-4.11-.217.494-.757.919-1.2.944-.443.026-.985.088-1.205.139-.22.051-.613.121-.873.154-.26.034-.587.421-.727.861-.158.498-.605.8-1.185.8-.512 0-1.355.447-1.873.993-.552.582-1.397.996-2.042 1-.905.006-1.1.184-1.1 1.007 0 .785-.204 1-.945 1-.52 0-1.375.426-1.9.946-.525.52-1.351 1.07-1.835 1.22-.483.151-.99.626-1.126 1.054-.156.492-.608.78-1.221.78-.771 0-.973.207-.973 1 0 .8-.2 1-1 1-.792 0-1 .202-1 .972 0 .704-.249 1.008-.9 1.1-.578.082-.946.45-1.028 1.028-.07.495-.295.922-.5.95-.205.028-.597.072-.872.1-.527.053-.57.215-.65 2.45-.043 1.213-.183 1.4-1.05 1.4-.772 0-1 .206-1 .905 0 .555-.348 1.058-.9 1.3-.692.304-.928.783-1.022 2.07-.1 1.374-.279 1.698-1 1.8-.735.105-.897.42-.996 1.938-.093 1.421-.309 1.897-1 2.2-.683.3-.936.839-1.119 2.387-.131 1.1-.266 1.865-.3 1.7-.352-1.678-1.51 1.566-1.607 4.5-.143 4.324-.784 5.2-3.804 5.2-1.579 0-2.227.208-3.03.971-.808.767-1.52.993-3.398 1.076-2.241.1-3.942.895-3.537 1.653.088.165-.48.3-1.263.3-.783 0-1.424.18-1.424.4 0 .22-.225.355-.5.3-.275-.055-.457.12-.404.389.054.27-.486.64-1.2.824-.895.231-1.336.605-1.424 1.211-.084.577-.409.876-.954.876-.454 0-1.243.45-1.753 1-.598.645-1.359 1-2.146 1-1.025 0-1.219.155-1.219.973 0 .613-.288 1.065-.78 1.221-.428.136-.887.589-1.02 1.006-.133.417-.591.87-1.02 1.006-.428.136-.888.684-1.022 1.218-.134.534-.359.91-.501.837-.495-.258-1.458 1.157-1.596 2.343-.166 1.433-.159 1.423-1.184 1.5-.807.061-1.019 3.086-.27 3.837.142.143 6.589.349 14.326.459 11.586.165 14.261.308 15.164.81l1.097.609-.897 1.296c-1.2 1.734-.575 1.666-16.697 1.825-7.982.079-14.901.321-15.8.554-.894.231-1.23.434-.762.46.461.025 1.148.388 1.526.806.379.419 1.308.877 2.065 1.019 3.463.65 3.073 3.952-.521 4.416-1.05.136-2.499.507-3.222.826-.722.318-1.672.579-2.111.579-.772 0-.797.259-.757 7.853.041 7.811.284 9.347 1.478 9.347.452 0 .782 5.079.532 8.2-.053.665.006.699.348.2.278-.405.414-.437.418-.1.003.275.231.455.506.4.338-.068.539.582.621 2 .11 1.915.205 2.1 1.078 2.1.858 0 .97.197 1.079 1.9.104 1.621.254 1.919 1.022 2.028.778.11.9.367.9 1.892 0 1.538.126 1.796.977 2.01.595.149 1.025.583 1.1 1.108.077.541.458.91 1.023.99.651.092.9.396.9 1.1 0 .77.208.972 1 .972.8 0 1 .2 1 1s.2 1 1 1c.793 0 1 .202 1 .973 0 .765.236 1.001 1.1 1.1.883.102 1.075.305.975 1.027-.106.761.06.9 1.076.9 1.257 0 1.958.562 1.249 1a.475.475 0 0 0-.171.647c.154.25.434.233.771-.047.366-.304.609-.31.788-.019.143.23.699.419 1.236.419.89 0 1.208.529 1.023 1.7-.026.165.853.3 1.953.3 1.81 0 2 .086 2 .904 0 .868.156.909 3.898 1.035 3.571.12 4.781.487 4.28 1.296-.348.564 1.822.754 8.679.76 5.901.004 7.095.103 7.288.605.685 1.787 7.582.439 8.259-1.613 1.465-4.437 9.061-8.434 14.026-7.381 2.973.631 3.351.353 3.92-2.879.237-1.343.683-2.731.992-3.085.309-.353.839-1.182 1.178-1.842 1.195-2.324 6.404-7 7.798-7 2.647 0 2.99-2.965.859-7.426-.427-.895-.777-1.977-.777-2.406 0-.429-.374-1.478-.831-2.331-.458-.853-1.006-2.63-1.218-3.948-.212-1.317-.652-2.912-.979-3.542-.326-.631-.754-2.812-.952-4.847-.197-2.035-.643-4.773-.989-6.084-.486-1.834-.631-4.468-.631-11.416s.145-9.582.631-11.416c.346-1.311.788-4.011.981-5.999.201-2.071.697-4.378 1.161-5.4.445-.982.813-2.398.818-3.146.005-.749.439-2.279.964-3.4.526-1.122 1.08-2.794 1.232-3.716.151-.922.52-1.88.819-2.128.298-.247.668-1.02.821-1.717.244-1.112 1.989-4.97 3.021-6.678.199-.33.695-1.323 1.102-2.206.408-.883 1.035-1.85 1.395-2.149.36-.298.655-.793.655-1.099 0-.305.765-1.649 1.7-2.986.935-1.337 1.88-2.722 2.1-3.077.922-1.488 4.488-6.025 6.179-7.861 2.835-3.08 9.376-9.422 9.715-9.422.169 0 .306-.274.306-.61 0-.335.443-.778.984-.984.541-.206 1.306-.654 1.7-.997 2.175-1.892 3.667-3.009 4.02-3.009.219 0 .633-.283.92-.629.287-.346 1.225-1.021 2.084-1.5l2.653-1.484c.601-.338 1.6-1.013 2.22-1.5.62-.488 1.428-.887 1.795-.887.368 0 1.279-.45 2.024-1 .745-.55 1.635-1.006 1.978-1.012.342-.007 1.342-.456 2.222-.998.88-.542 1.96-.992 2.4-1 .44-.008 1.7-.458 2.8-.999 1.1-.541 2.36-.989 2.8-.996.44-.007 1.573-.364 2.518-.792.945-.429 2.655-.901 3.8-1.049 1.145-.147 3.161-.609 4.479-1.025 4.903-1.549 19.505-1.885 21.053-.484 2.289 2.071.432 4.978-5.217 8.168-2.206 1.246-4.672 3.282-9.025 7.451-1.874 1.795-3.408 3.439-3.408 3.654 0 .214-.436.676-.97 1.025-.533.35-1.085 1-1.227 1.446-.141.446-.515.811-.83.811-.315 0-.573.322-.573.715 0 .393-.533 1.338-1.184 2.1-.651.762-1.191 1.6-1.2 1.862-.009.263-.339.713-.733 1-.395.288-.945 1.298-1.223 2.244-.277.947-.747 1.814-1.043 1.928-.296.113-.651.806-.788 1.538-.138.733-.583 1.755-.991 2.273-.407.518-.955 1.976-1.217 3.241-.263 1.264-.727 2.547-1.031 2.852-.304.304-.736 2.013-.96 3.798-.224 1.784-.724 3.83-1.112 4.547-1.052 1.942-1.07 20.444-.022 23 .383.935.897 2.996 1.143 4.58.246 1.585.686 3.251.978 3.702.292.451.751 1.72 1.02 2.82.27 1.1.801 2.403 1.181 2.897.381.493.807 1.51.947 2.259.141.75.512 1.576.825 1.836.313.26.779 1.108 1.036 1.886.257.778.728 1.709 1.046 2.068.817.92 2.417 3.272 3.019 4.437.554 1.07.493.998 5.243 6.177 2.822 3.075 9.43 9.04 10.017 9.04.109 0 1.335.773 2.724 1.718 1.389.946 3.155 1.965 3.925 2.266.77.301 1.67.765 2 1.03.33.266 1.543.79 2.695 1.165 1.153.375 2.191.836 2.307 1.025.117.188 1.244.555 2.505.815 1.261.26 2.796.73 3.411 1.046 1.041.534 13.003 2.202 15.682 2.186 3.18-.018 15.325-1.658 16.394-2.213.656-.341 2.186-.823 3.4-1.071 1.213-.247 2.476-.685 2.806-.971.33-.287 1.344-.72 2.253-.962.91-.242 1.867-.697 2.128-1.011.261-.314 1.047-.697 1.747-.851.699-.153 1.722-.629 2.272-1.057.55-.429 1.905-1.35 3.011-2.047 5.041-3.177 6.288-4.994 4.021-5.856-1.865-.709-2.057-3.414-.304-4.28.37-.183 11.922-.422 25.672-.532 19.464-.156 25.221-.316 26-.722 2.725-1.422 3.599-1.988 5.061-3.278 2.664-2.352 4.033-4.692 5.004-8.557l.893-3.558-.919-3.587c-2.157-8.423-8.91-13.165-17.184-12.068-2.11.28-6.855 4.062-6.855 5.464 0 1.114-1.235 2.375-1.836 1.876-2.222-1.844 2.59-8.979 6.553-9.715.596-.111 1.756-.311 2.578-.445 4.111-.672 2.575-9.707-2.433-14.315-3.893-3.582-6.1-4.467-11.55-4.629-5.351-.16-8.758 1.098-12.183 4.498-3.313 3.29-5.1 3.316-5.971.089-.245-.909-.594-2.013-.774-2.453-.181-.44-.542-1.52-.804-2.4-3.306-11.111-19.598-15.808-28.975-8.353-5.276 4.194-7.575 9.293-7.374 16.353.106 3.735.135 3.627-1.204 4.581l-1.174.835-1.455-.817c-.801-.45-1.938-1.164-2.527-1.588-2.965-2.13-9.837-1.762-12.467.668-.548.507-1.128.921-1.29.921-.162 0-.658.799-1.103 1.776-.445.976-.969 1.874-1.164 1.995-.195.12-.473 1.005-.617 1.966-.43 2.867-1.446 3.615-4.523 3.327-18.282-1.707-25.33 22.353-9.007 30.752l2.3 1.184 24.133.2 24.133.2 1.19 1.332c.654.732 1.124 1.542 1.045 1.8-.911 2.952-49.916 3.178-53.985.248-.596-.429-1.332-.78-1.635-.78-.733 0-3.202-1.832-5.018-3.724-3.143-3.274-3.598-3.869-3.858-5.052-.148-.673-.415-1.224-.594-1.224-2.157 0-2.397-15.017-.28-17.577.283-.343.745-1.163 1.028-1.823.604-1.411.829-1.687 3.803-4.669 3.687-3.696 7.875-5.537 14.166-6.227 1.657-.181 4.072-2.44 4.072-3.809 0-1.325 6.446-7.095 7.927-7.095.245 0 1.305-.292 2.356-.649 2.37-.805 4.669-.779 7.298.081 2.269.742 3.219.388 3.219-1.201 0-.479.155-1.042.344-1.251.189-.209.545-1.427.792-2.707.246-1.279.812-2.789 1.256-3.354.444-.565.808-1.257.808-1.539 0-1.516 7.238-8.415 9.854-9.393.63-.236 1.956-.82 2.946-1.299 4.338-2.098 14.824-1.152 19.6 1.768.33.202 1.127.677 1.772 1.055 3.392 1.994 8.163 7.861 8.819 10.846.263 1.197 2.609 1.983 2.609.874 0-.887 5.058-2.884 8.327-3.288 8.088-.998 15.439 1.439 19.873 6.589 2.65 3.079 2.945 3.509 3.2 4.666.145.661.407 1.202.583 1.202.655 0 2.017 6.106 2.017 9.041 0 .034.527.28 1.171.547s1.482.829 1.862 1.249c.38.419 1.007.763 1.394.763 1.849 0 8.47 7.951 9.038 10.853.145.741.55 1.789.899 2.33.924 1.428.88 8.549-.063 10.217-.373.66-.864 1.944-1.092 2.853-.228.91-.683 1.877-1.012 2.149-.328.273-.597.738-.597 1.033 0 .296-.548 1.129-1.218 1.851-.67.723-1.765 1.899-2.434 2.614-.669.715-1.427 1.3-1.686 1.3-.258 0-.684.344-.947.764-.262.42-1.025.885-1.696 1.032-.67.147-1.219.411-1.219.587 0 1.332-6.696 2.069-21.481 2.366-14.114.284-13.186.018-13.676 3.919-.195 1.554-.631 3.254-.968 3.779-.338.524-.807 2.019-1.043 3.322-.237 1.303-.677 2.745-.979 3.206-.301.46-.684 1.464-.851 2.231-.166.767-.626 2.024-1.022 2.794s-1.787 3.56-3.092 6.2c-2.321 4.698-3.616 6.926-5.267 9.063-.451.585-.821 1.234-.821 1.442 0 .208-.405.834-.9 1.39-.495.557-1.615 2.023-2.488 3.259-.873 1.235-1.734 2.246-1.912 2.246-.179 0-.443.315-.587.7-.205.544-3.492 4.139-6.405 7.002-3.791 3.726-6.973 6.35-11.519 9.498a58.07 58.07 0 0 0-2.543 1.874c-.605.481-1.583.995-2.173 1.143-.59.149-1.073.44-1.073.649 0 .208-.803.734-1.783 1.168-.981.434-1.884.951-2.006 1.148-.122.198-.895.579-1.717.847-.822.268-1.917.816-2.435 1.219-.517.402-1.545.845-2.285.983-.74.139-1.546.494-1.79.789-.245.295-1.467.745-2.715 1-1.248.255-2.558.719-2.911 1.031-.354.313-1.794.762-3.2.998-1.407.235-3.278.755-4.158 1.153-.901.409-3.148.846-5.146 1.001-1.951.152-4.201.568-5 .924-2.139.952-20.339.934-22.533-.023-.813-.355-2.923-.771-4.69-.925l-3.212-.281-2.963 3.032c-1.719 1.758-3.445 3.152-4.11 3.317-.63.157-1.326.524-1.546.815-.721.954-4.571 1.338-13.41 1.338-10.267 0-10.981-.21-9.857-2.902.781-1.869.67-1.849 11.067-1.99l8.6-.117 2-1.159c2.064-1.197 5-3.739 5-4.329 0-.185.405-.883.9-1.553 1.608-2.174 1.313-8.706-.514-11.38-4.798-7.023-13.021-7.678-16.523-1.315l-.738 1.34-.787-.972c-1.545-1.908.996-5.572 4.799-6.923 2.968-1.054 3.844-5.222 1.682-7.992-.39-.5-.826-1.268-.97-1.708-.641-1.963-5.328-4.972-8.521-5.469-3.26-.507-7.799.14-8.932 1.273-.438.438-.949.796-1.135.796-.186 0-1.221.801-2.3 1.78-2.801 2.542-4.62 2.065-5.307-1.389-3.504-17.619-28.776-16.022-29.565 1.868-.26 5.879-1.587 7.177-4.867 4.757-4.968-3.665-11.328-1.685-13.801 4.297-1.292 3.125-2.023 3.667-4.451 3.303-2.808-.421-7.585 1.28-10.098 3.595-6.574 6.055-5.506 14.814 2.419 19.849l2.109 1.34 20 .2c21.276.213 20.797.167 21.207 2.031.613 2.793.755 2.769-16.583 2.769h-15.452l-.717 1.214c-.494.838-.65 1.674-.501 2.7.119.817.223 1.552.231 1.633.008.08.375.052.815-.063.684-.179.8-.012.8 1.153 0 1.179.132 1.363.978 1.363.883 0 .99.185 1.1 1.9.104 1.621.254 1.919 1.022 2.028.651.092.9.396.9 1.1 0 .77.208.972 1 .972.939 0 1.304.872 1.047 2.5-.026.165.223.3.553.3.33 0 .6.255.6.567 0 .311.188.629.418.706.23.076.448.541.485 1.033.048.645.322.894.982.894.631 0 .915.235.915.757 0 .473.374.85 1 1.007.642.161 1 .533 1 1.036s.358.875 1 1.036c.621.156 1 .534 1 1 0 .465.379.844 1 1 .55.138 1 .497 1 .798 0 .301.675.893 1.5 1.316.825.424 1.5.923 1.5 1.11 0 .187.135.295.3.24.165-.055.3.08.3.3 0 .22.527.4 1.172.4.911 0 1.201.2 1.3.9.079.558.449.946.973 1.021.465.066 1.046.561 1.292 1.1.365.802.736.979 2.054.979 1.45 0 1.609.099 1.609 1 0 .933.133 1 2 1 1.966 0 2.275.257 2.047 1.7-.026.165.358.303.853.306.991.007 1.932.487 2.034 1.039.036.195.201.31.366.255.165-.055.3.08.3.3 0 .22.99.4 2.2.4 1.892 0 2.2.106 2.2.757 0 .986.75 1.243 3.633 1.243 2.056 0 2.367.1 2.367.757 0 1.088.725 1.243 5.806 1.243h4.541l-.181 1-.182 1h11.237c11.49 0 12.379-.113 12.379-1.571 0-.373 6.851-.717 8.778-.441.458.066.48-.036.104-.489-.632-.761-.12-1.226.656-.596.513.417.569.384.349-.203-.229-.612.026-.707 2.026-.759 4.016-.104 3.894-.071 3.795-1.02-.082-.793.116-.892 2-1 1.821-.105 2.109-.237 2.22-1.021.113-.794.359-.9 2.1-.9 1.837 0 1.972-.069 1.972-1 0-.933.133-1 2-1s2-.067 2-1c0-.8.2-1 1-1 .55 0 1-.191 1-.424 0-.233.16-.325.355-.204.44.272 1.337-.747.975-1.109-.145-.145.397-.263 1.203-.263 1.298 0 1.467-.115 1.467-1 0-.8.2-1 1-1s1-.2 1-1c0-.805.199-1 1.018-1 .565 0 1.484-.466 2.065-1.046.575-.576 1.444-1.071 1.93-1.1.487-.03.82-.234.74-.454-.222-.613.358-1.291 1.247-1.458.455-.085.854-.526.925-1.021.077-.542.456-.919 1-.996.539-.077.922-.455.997-.984.068-.473.472-.951.899-1.062.427-.112.924-.6 1.103-1.085l.326-.882.683 1.041c.375.573.814 1.022.975.997 1.632-.25 2.492.112 2.492 1.05 0 .8.2 1 1 1 .793 0 1 .202 1 .973 0 .765.236 1.001 1.1 1.1.887.102 1.075.303.973 1.036-.128.923.624 1.103 1.221.291.182-.248.296-.21.3.1.004.3.545.5 1.351.5 1.188 0 1.324.107 1.168.924-.163.851-.026.931 1.745 1.023 2.209.114 2.164.09 2.249 1.208.058.777.298.845 2.978.845 2.942 0 3.207.152 2.962 1.7-.026.165 5.812.3 12.972.3h13.019l.927-1c.649-.701 1.347-1 2.331-1 2.536 0 3.904-.438 3.904-1.25 0-.625.308-.75 1.843-.75 1.445 0 1.795-.125 1.62-.58-.148-.387-.03-.505.357-.357.358.138.58-.023.58-.42 0-.607 1.177-.884 2.778-.655.458.066.48-.036.104-.489-.632-.761-.12-1.226.656-.596.513.417.569.384.349-.203-.213-.568-.039-.7.926-.7.999 0 1.187-.158 1.187-1 0-.788.203-1 .957-1 .679 0 1.027-.282 1.2-.972.153-.607.583-1.021 1.144-1.1.577-.082.945-.45 1.027-1.028.098-.694.39-.9 1.271-.9 1.527 0 2.401-.957 2.401-2.629 0-1.196.128-1.371 1-1.371.8 0 1-.2 1-1s.2-1 1-1c.792 0 1-.202 1-.972 0-.704.249-1.008.9-1.1.619-.088.936-.44 1.016-1.128.168-1.45 6.352-1.328 6.56.13.123.863.205.871 9.835.977l9.711.107 1.007-1.007c.872-.871 1.361-1.007 3.632-1.007 2.128 0 2.582-.11 2.402-.58-.148-.387-.03-.505.357-.357.358.138.58-.023.58-.42 0-.486.401-.643 1.643-.643 1.27 0 1.592-.131 1.42-.58-.148-.387-.03-.505.357-.357.358.138.58-.023.58-.42 0-.419.348-.643 1-.643.8 0 1-.2 1-1 0-.805.199-1 1.018-1 .565 0 1.484-.466 2.065-1.046.575-.576 1.45-1.071 1.943-1.1.494-.03.816-.185.717-.346-.246-.398.628-1.972.977-1.761.548.331 1.28-.797 1.28-1.971 0-.343.16-.525.355-.404.44.272 1.337-.747.975-1.109-.145-.145-.053-.263.203-.263.257 0 .467-.45.467-1 0-.8.2-1 1-1 .788 0 1-.203 1-.957 0-.923.933-1.655 1.591-1.249.175.109.311-.026.301-.298-.094-2.613.141-3.445 1.008-3.568.788-.112.929-.428 1.133-2.528.128-1.32.263-2.175.3-1.9.046.343.293.281.789-.2.472-.457.576-.802.3-.994-.278-.194-.252-.296.078-.3.353-.004.5-.847.5-2.86 0-2.531.113-2.959 1-3.781l1-.927v-7.759c0-7.946-.354-10.425-1.431-10.012-.468.18-.569-.466-.569-3.633 0-3.699-.039-3.869-.98-4.298-.802-.365-1.002-.782-1.1-2.291-.101-1.551-.26-1.865-.999-1.97-.742-.106-.898-.419-1-2-.103-1.596-.255-1.894-1.021-2.003-.651-.092-.9-.396-.9-1.1 0-.535-.163-.972-.363-.972-.199 0-.268-.36-.153-.8.189-.722-.116-.946-.984-.723-.165.043-.391-.452-.503-1.1-.144-.837-.461-1.214-1.1-1.305-.648-.092-.897-.397-.897-1.1 0-.77-.208-.972-1-.972-.55 0-1-.174-1-.387 0-.214.315-.27.7-.126.587.22.62.164.203-.349-.63-.776-.165-1.288.596-.656.453.376.555.354.489-.104-.347-2.417.054-4.607.912-4.983.827-.363.909-.697 1.015-4.095.063-2.035.288-3.722.5-3.75.212-.028.61-.072.885-.1.386-.039.526-2.952.615-12.755.062-6.987-.028-12.681-.2-12.652-1.572.26-1.715 0-1.72-3.143-.007-3.863-.27-4.9-1.242-4.9-.675 0-1.145-3.115-.8-5.3.026-.165-.088-.279-.253-.253-1.338.212-1.701-.114-1.728-1.547-.031-1.633-.438-2.976-.888-2.93-.904.095-1.084-.066-1.084-.97 0-.55-.163-1-.363-1-.199 0-.268-.36-.153-.8.189-.722-.116-.946-.984-.723-.165.043-.391-.452-.503-1.1-.144-.837-.461-1.214-1.1-1.305-.73-.104-.897-.383-.897-1.5 0-.953-.183-1.372-.6-1.372-.33 0-.6-.281-.6-.624 0-.343-.18-.512-.4-.376-.22.136-.4-.127-.4-.585 0-.492-.396-1.012-.969-1.274-.533-.243-1.077-.869-1.208-1.391-.15-.6-.53-.95-1.031-.95-.578 0-.792-.27-.792-1 0-.8-.2-1-1-1-.612 0-1-.228-1-.586 0-.775-1.253-1.414-2.774-1.414-1.041 0-1.226-.151-1.226-1 0-.8-.2-1-1-1s-1-.2-1-1c0-.933-.133-1-2-1s-2-.067-2-1c0-.769-.208-1.001-.9-1.006-.991-.007-1.932-.487-2.034-1.039-.036-.195-.201-.31-.366-.255-.165.055-.3-.08-.3-.3 0-.22-.97-.4-2.157-.4-1.966 0-2.178-.088-2.407-1-.221-.881-.465-1-2.044-1H320.8l-.061-3.3c-.033-1.815-.078-3.57-.1-3.9-.021-.33-.444-.658-.939-.728-.873-.124-.9-.263-.9-4.708 0-4.478-.022-4.591-.984-5.029-.891-.407-.994-.714-1.1-3.292-.106-2.602-.192-2.854-1.016-2.971-.688-.098-.9-.391-.9-1.245 0-1.721-2.456-2.027-16.293-2.027-12.663 0-13.307-.095-13.307-1.965 0-2.174.248-2.218 13.841-2.435 9.906-.158 12.629-.315 13.04-.75.413-.437.416-.588.017-.734-.277-.101-.407-.34-.289-.53.264-.428-1.363-.727-5.967-1.099-3.903-.315-4.566-.743-4.09-2.639.302-1.201.9-1.507 4.648-2.377 1.43-.332 2.189-.619 1.686-.638-.503-.018-1.394-.348-1.982-.733-.913-.599-2.401-.729-10.286-.9-9.374-.203-9.914-.284-10.607-1.58-1.146-2.141.536-2.728 8.287-2.893 6.502-.137 7.22-.225 8.502-1.037 1.241-.786 1.296-.887.481-.889-1.251-.002-2.811-1.785-3.106-3.55-.45-2.694-.999-3.964-1.804-4.174-.436-.115-.744-.434-.682-.71.061-.276-.339-.735-.889-1.021-.55-.286-1-.745-1-1.021 0-.276-.45-.726-1-1s-1.003-.639-1.006-.812c-.014-.69-.683-1.313-1.41-1.313-.484 0-.861-.366-1.016-.987-.137-.542-.365-.971-.508-.952-.913.119-1.645-.129-1.56-.528.115-.536-1.559-1.518-2.6-1.527-.478-.004-.7-.323-.7-1.006 0-.85-.184-1-1.233-1-.804 0-1.176-.173-1.068-.496.287-.861-.781-1.504-2.496-1.504-1.481 0-1.64-.093-1.528-.892.1-.716-.111-.933-1.075-1.104-.86-.152-1.2-.437-1.2-1.008 0-.662-.337-.83-2-.996-1.667-.167-2-.333-2-1 0-.671-.307-.82-1.9-.922-1.695-.109-2.072-.36-1.97-1.311.031-.283-.278-.342-3.255-.624-1.971-.186-2.378-.363-2.683-1.164-.325-.855-.631-.954-3.275-1.061-2.734-.111-2.915-.174-2.885-1.018.031-.895 0-.9-6.057-.9h-6.088l-.246-.98-.246-.979-8.498.047c-8.351.046-8.512.063-9.383.979m71.747 44.144c2.073.723 2.842 2.612 1.372 3.372-1.82.941-42.063.93-43.005-.012-.738-.738-.471-2.502.496-3.271.812-.646 39.301-.729 41.137-.089m-26.037 8.009c.677.562.744 1.72.162 2.806-1.104 2.063-9.186.826-9.186-1.406 0-2.027 6.966-3.108 9.024-1.4m9.922.467c1.303 2.065-3.109 4.404-5.135 2.722-.691-.573-.991-2.728-.443-3.181 1.132-.936 4.894-.626 5.578.459m13.706 7.193c1.56 1.561-.821 3.92-3.957 3.92-3.427 0-5.097-.479-5.978-1.716l-.857-1.205 1.143-.983c1.423-1.224 8.429-1.236 9.649-.016m-70.47 5.778c.78 1.021 1.418 2.181 1.418 2.577 0 1.762 1.734 2.91 4.822 3.193 5.088.466 5.623 2.212 1.899 6.193-2.738 2.927-2.92 3.702-1.711 7.268 1.176 3.467-2.765 5.184-5.659 2.465-1.316-1.237-3.948-1.246-5.59-.02-4.028 3.01-7.215.755-5.561-3.934.903-2.56.808-2.839-1.997-5.83-1.429-1.524-2.509-3.01-2.4-3.303.108-.293.197-.797.197-1.12 0-.849 2.453-1.747 4.771-1.747 2.303 0 3.758-1.174 4.422-3.567.403-1.45 2.623-4.033 3.467-4.033.277 0 1.142.836 1.922 1.858m58.811 19.734c.394.436 1.337.909 2.094 1.051.758.142 1.805.685 2.327 1.208.522.522 1.156.949 1.407.949.663 0 3.137 2.784 3.802 4.278.313.703.822 1.423 1.13 1.6.316.181.746 1.522.985 3.069.233 1.511.673 3.041.977 3.4.304.359.785 1.238 1.068 1.953.844 2.135 3.154 1.893 5.722-.6a2348.94 2348.94 0 0 1 2.826-2.741c.478-.463 1.548-.967 2.378-1.12.832-.154 1.728-.629 1.996-1.059.733-1.173 8.579-1.175 9.583-.002.366.427 1.347.905 2.18 1.061.86.162 1.832.689 2.252 1.223.406.516.981.938 1.277.938.653 0 3.803 4.339 3.803 5.238 0 .351.36.964.8 1.362.65.588.8 1.232.8 3.426v2.703l-1.7.795c-.935.438-2.385.914-3.222 1.058-.87.15-1.886.681-2.372 1.24-.468.538-1.092.978-1.387.978-.295 0-.741.45-.992 1-.25.55-.616 1-.812 1-1.383 0-2.048 6.087-.741 6.786 1.474.789 2.826-.075 2.826-1.805 0-.585.392-1.219 1-1.618.55-.36 1-.994 1-1.409 0-.463.282-.754.73-.754.402 0 1.153-.45 1.67-1 1.17-1.246 8.114-1.544 8.961-.385.247.338 1.143.853 1.992 1.144 1.612.555 5.447 3.99 5.447 4.88 0 .284.345.757.766 1.052 1.729 1.211 1.757 13.476.034 14.658-.44.302-.8.777-.8 1.056 0 1.01-4.208 4.811-5.882 5.312-.899.27-1.738.759-1.864 1.087-.199.519-3.325.596-24.186.596-26.089 0-27.535.07-28.124 1.364-1.235 2.709-5.356 3.002-7.544.536l-1.508-1.7-24.717-.112c-24.059-.109-24.731-.133-25.267-.899-.313-.446-1.235-.896-2.13-1.039-.962-.154-1.578-.47-1.578-.81 0-.306-.435-.755-.966-.997-.531-.242-1.058-.792-1.17-1.221-.113-.43-.557-.874-.989-.986-.545-.143-.859-.678-1.032-1.758-.154-.964-.551-1.715-1.046-1.979-1.013-.543-1.243-10.496-.255-11.079.728-.43 1.458-1.879 1.458-2.894 0-.473.26-.826.609-.826.334 0 .804-.43 1.044-.956.239-.526.865-1.152 1.391-1.391.526-.24.956-.71.956-1.044 0-.386.373-.609 1.018-.609.56 0 1.468-.45 2.018-1 .964-.964 1.188-1 6.182-1 5.688 0 6.782-.416 6.782-2.582 0-.54.45-1.646 1-2.456.55-.811 1-1.811 1-2.224 0-.413.562-1.243 1.25-1.844a126.52 126.52 0 0 0 2.218-1.994c1.541-1.432 9.161-1.359 10.532.1.517.55 1.17 1 1.452 1 .281 0 .95.438 1.486.974 2.823 2.823 4.833-.07 4.971-7.155.101-5.218.176-5.698 1.1-7.031.545-.787.991-1.671.991-1.964 0-.293.405-.914.9-1.382.495-.467 1.365-1.411 1.934-2.098.568-.686 1.414-1.369 1.879-1.517.466-.147.95-.596 1.077-.996.158-.498.767-.8 1.921-.953 1.04-.139 1.92-.537 2.289-1.037.902-1.22 9.897-1.26 10.993-.049m-14.689 23.894c-.602.091-1.322.485-1.6.875-.277.391-1.044.843-1.704 1.007-1.272.315-4.6 3.482-4.6 4.377 0 .292-.339.838-.754 1.213-.415.376-.863 1.226-.995 1.889-.137.681-.42 1.096-.652.952-1.041-.643-6.495-.278-7.555.505-.583.431-1.456.909-1.941 1.063-.485.154-1.388 1.035-2.007 1.957-1.123 1.674-1.128 1.676-4.297 1.965-2.217.202-3.502.533-4.269 1.1-.604.446-1.27.811-1.481.811-1.757 0-5.803 5.914-5.803 8.482 0 4.393 4.456 3.22 5.209-1.371.155-.947.509-1.573.974-1.72.401-.128.832-.554.958-.949.281-.887 5.135-1.858 7.279-1.456 1.68.315 4.934-2.552 4.934-4.347 0-1.756 7.892-1.935 8.821-.201 1.068 1.997 2.943.717 3.614-2.465.252-1.195.586-2.353.742-2.573.155-.22.502-1.165.769-2.1.291-1.016.724-1.7 1.079-1.7.326 0 .797-.45 1.048-1 .303-.665.779-1 1.423-1 .532 0 2.078-.431 3.436-.958 1.357-.527 2.943-1.066 3.524-1.197 1.852-.418 1.893-2.38.063-3.076-.959-.364-4.084-.406-6.215-.083m6.256 1.035c.991.725.061 1.466-2.423 1.93-5.704 1.066-10.537 5.781-10.537 10.279 0 1.649-1.127 3.183-1.826 2.484-.206-.206-1.548-.817-2.982-1.356l-2.607-.982-2.072.876c-1.455.616-2.386 1.348-3.127 2.462-1.536 2.309-2.057 2.586-4.864 2.586-1.761 0-2.977.242-4.018.8-.82.44-1.701.8-1.957.8-.523 0-2.947 2.628-2.947 3.196 0 .366-1.586 2.928-2.429 3.924-.609.72-1.571-.111-1.571-1.357 0-4.304 6.578-10.163 11.41-10.163 2.404 0 3.591-.538 4.453-2.016 1.496-2.564 6.764-4.453 9.648-3.46l1.685.581 1.578-2.852c3.435-6.212 11.105-10.277 14.586-7.732m-219.921 7.017c-.139.223-.057.527.181.674.615.381 1.012-.14.498-.654-.287-.287-.511-.294-.679-.02m28.532 1.916c1.808 2.298.604 3.346-3.842 3.346-3.181 0-3.369-.049-3.802-1-.595-1.307.084-2.873 1.35-3.115 3.063-.585 5.459-.292 6.294.769m-.391 6.935c1.088.583 1.401 2.348.577 3.258-1.008 1.115-21.186 1.162-22.493.053-1.031-.876-.774-2.625.474-3.229 1.119-.541 20.446-.615 21.442-.082m2.331 7.834c2.518 1.763.542 3.777-3.705 3.777-4.252 0-6.306-2.021-3.906-3.843 1.027-.78 6.472-.732 7.611.066m16.089-.095c1.162.6 1.221 2.519.103 3.372-.922.703-11.438.701-12.022-.002-.967-1.165-.977-2.585-.024-3.253 1.191-.834 10.379-.924 11.943-.117m-45.3 7.468c.715.436 1.3.96 1.3 1.165 0 2.477-4.452 3.553-5.853 1.415-1.525-2.329 1.839-4.235 4.553-2.58m45.668.321 1.337 1.116-1.283 1.284-1.284 1.283h-38.16l-1.375-1.256-1.374-1.256 1.37-1.144 1.371-1.144h38.06l1.338 1.117m-32.465 6.509c1.638.571 2.513 2.53 1.556 3.486-1.108 1.108-8.063 1.183-9.778.105l-1.319-.829.715-1.21c.393-.666 1.077-1.287 1.519-1.379l1.604-.337c1.592-.337 4.507-.253 5.703.164m70.702 35.18c.402.443 1.432.918 2.29 1.056 1.016.162 1.775.578 2.178 1.193.341.52.939.945 1.33.945.424 0 .811.403.961 1 .138.55.5 1 .804 1 .548 0 1.424 1.922 1.441 3.16.005.352.361 1.09.791 1.64.43.55.786 1.417.791 1.926.029 2.985 2.963 4.357 4.987 2.332.518-.518 1.247-1.059 1.62-1.202.373-.143.772-.619.887-1.058.136-.521.546-.798 1.18-.798.534 0 1.421-.45 1.971-1 .932-.932 1.269-1 4.964-1 3.695 0 4.032.068 4.964 1 .55.55 1.429 1 1.954 1 .629 0 1.109.34 1.409 1 .251.55.722 1 1.048 1 .348 0 .797.68 1.086 1.644.271.905.818 1.848 1.216 2.097.954.595 1.076 5.059.139 5.059-.322 0-.907.335-1.3.744-.394.409-1.224.865-1.844 1.014-3.525.847-6.009 7.468-3.271 8.715 1.269.579 2.599-.583 2.599-2.271 0-.583.297-.986.83-1.126.456-.119.925-.581 1.041-1.027.328-1.253 8.929-1.472 8.929-.228 0 .303.405.763.9 1.022 1.117.586 3.1 2.739 3.1 3.367 0 .256.36.792.8 1.19 1.186 1.073 1.192 7.721.008 8.793-.436.394-.906 1.322-1.045 2.062-.14.747-.495 1.345-.798 1.345-.301 0-.828.429-1.171.953-.343.524-1.152 1.059-1.797 1.188-.644.128-1.528.59-1.964 1.026-.736.736-1.447.8-10.194.912l-9.402.121-1.535 1.5c-2.228 2.176-7.121 2.296-8.102.2-1.077-2.303-9.2-2.753-9.2-.51 0 .411-.391.61-1.2.61-.809 0-1.2-.199-1.2-.61 0-1.563-4.262-1.718-5.671-.206-.892.958-2.329 1.085-2.329.206 0-1.255-2.088-1.39-21.564-1.39-19.004 0-19.531-.021-20.236-.8-.398-.44-1.024-.8-1.391-.8-1.312 0-4.621-3.857-5.18-6.037-.285-1.112-.768-2.118-1.074-2.235-.861-.331-.657-2.373.445-4.443.55-1.033 1-2.354 1-2.935 0-.733.254-1.123.83-1.274.456-.119.927-.59 1.046-1.046.12-.457.505-.83.856-.83s1.005-.456 1.453-1.013c.767-.953 1.1-1.027 5.615-1.255l4.8-.243 1.353-1.444c1.404-1.5 2.047-3.053 2.047-4.942 0-.775.204-1.103.685-1.103.377 0 1.054-.463 1.505-1.028 1.237-1.552 7.792-1.54 9.236.018.781.843 1.298 1.01 3.126 1.01 3.263 0 3.448-.32 3.448-5.967 0-4.181.089-4.789.79-5.424.434-.393.911-1.096 1.058-1.562.48-1.51 4.371-4.924 5.951-5.221.796-.149 1.747-.621 2.113-1.048.998-1.166 6.832-1.145 7.893.028m1.113 50.894c1.015.756 1.295 2.83.49 3.635-.947.947-3.601.872-4.602-.129-1.354-1.354.231-4.006 2.394-4.006.576 0 1.349.225 1.718.5m10.598-.244c1.227.329 2.245 2.296 1.707 3.301-1.389 2.595-9.429 1.449-8.612-1.228.665-2.179 3.42-3.006 6.905-2.073" fill="#c4ebe3"/>
        <path id="bright-moon_svg__path2" d="M203.8 98.791c-1.1.153-2.452.467-3.004.697-.552.231-2.704.64-4.782.91s-4.146.728-4.596 1.018c-.45.289-1.988.734-3.418.988-1.43.254-2.87.704-3.2.999-.33.295-1.5.756-2.6 1.023-1.1.268-2.294.74-2.653 1.05-.359.309-1.346.754-2.193.988-.848.234-1.958.753-2.466 1.153-.509.4-1.438.84-2.065.978s-1.457.6-1.844 1.028c-.386.427-.931.777-1.21.777-.279 0-1.016.425-1.638.945-.622.52-1.554 1.078-2.07 1.24-.517.162-1.263.591-1.657.954-.395.364-2.099 1.651-3.787 2.861-1.688 1.21-3.954 3.055-5.035 4.1-1.081 1.045-2.064 1.9-2.185 1.9-.277 0-4.611 4.474-6.997 7.222-.99 1.141-2.205 2.478-2.7 2.972-.495.494-.902 1.057-.904 1.252-.004.335-2.057 3.18-3.331 4.615-.322.363-.696 1.006-.83 1.429-.134.423-.592 1.142-1.017 1.599-.425.456-1.066 1.433-1.423 2.17-1.154 2.381-2.384 4.62-2.849 5.188-.249.304-.577 1.13-.727 1.834-.151.705-.605 1.701-1.008 2.214-.404.513-.948 1.737-1.21 2.719-.261.982-.706 2.056-.988 2.386-.281.33-.636 1.32-.788 2.2-.152.88-.606 2.245-1.009 3.033-.404.789-.937 2.741-1.184 4.339-.248 1.598-.718 3.421-1.044 4.052-.34.656-.76 3.251-.984 6.061a545.348 545.348 0 0 1-.838 9.375c-.453 4.497-.45 4.558 1.076 20.94.133 1.43.489 3.078.79 3.662.302.583.753 2.375 1.002 3.98s.696 3.289.993 3.743c.297.454.748 1.813 1.002 3.02s.697 2.465.986 2.795c.289.33.738 1.45.999 2.488s.725 2.095 1.03 2.349c1.386 1.15-.082 3.548-2.64 4.314-.907.272-2.015.8-2.46 1.172-2.796 2.336-5.574 5.373-6.129 6.702-.355.851-.813 1.65-1.017 1.776-.204.126-.491 1.303-.638 2.614-.403 3.609-.784 3.873-5.139 3.567-5.218-.366-7.962.437-10.421 3.051-.22.234-.793.826-1.272 1.316-.48.49-.991 1.364-1.136 1.942-.355 1.414-1.244 2.102-3.392 2.626-4.27 1.042-6 .759-6-.981 0-.732-.218-.936-1-.936-.8 0-1 .2-1 1 0 .933-.133 1-2 1s-2 .067-2 1c0 .8-.2 1-1 1s-1 .2-1 1-.2 1-1 1c-.933 0-1 .133-1 2s-.067 2-1 2h-1v17.6h1c.8 0 1 .2 1 1s.2 1 1 1 1 .2 1 1 .2 1 1 1 1 .2 1 1 .2 1 1 1 1 .2 1 1c0 .978.067 1 3 1s3 .022 3 1v1h4c3.945 0 4-.013 4-.951 0-2.006.213-2.035 16.761-2.249l15.439-.2-.109-.975c-.059-.537-.209-1.077-.332-1.2-.124-.124-9.345-.317-20.492-.43-19.966-.203-21.39-.296-21.824-1.426-.12-.313-.493-.569-.83-.569-.86 0-3.693-2.844-4.438-4.455-.343-.74-.88-1.795-1.193-2.345-.784-1.375-.775-7.449.013-8.8.321-.55.849-1.54 1.172-2.2.524-1.068 1.503-2.178 3.739-4.24 1.744-1.608 5.435-2.868 8.993-3.071 3.399-.194 3.521-.235 3.731-1.245.12-.574.388-1.314.597-1.644.208-.33.593-1.05.854-1.6 2.453-5.163 11.509-6.55 15.034-2.303.697.841 2.073.426 2.134-.644.027-.469.089-1.843.137-3.053.244-6.1 3.293-11.57 7.614-13.661a71.09 71.09 0 0 0 2.682-1.369c4.135-2.278 13.472-.24 17.223 3.758.272.29.9.907 1.395 1.372.495.464.9 1.058.9 1.318 0 .261.368.943.819 1.515.608.774 1.507 4.03 1.579 5.722.034.816 2.612.167 3.671-.926.708-.731 1.466-1.329 1.684-1.329.217 0 .819-.398 1.336-.883 2.249-2.113 12.417-2.072 14.686.059.482.453 1.034.824 1.228.824.534 0 3.397 3.195 3.397 3.791 0 .288.261.623.579.746.867.332 1.484 3.182 1.38 6.378-.092 2.847 1.009 4.536 3.041 4.664 2.479.157 5.471 2.343 7.605 5.556 1.859 2.8 1.968 11.492.166 13.294-.424.424-.771.906-.771 1.071-.001.457-2.783 2.974-4.765 4.31l-1.765 1.19-9.557.132-9.557.132-.381 1.002c-.634 1.668-.284 1.734 9.26 1.734h9.188l2.996-1.422c2.243-1.064 3.682-2.128 5.72-4.227l2.723-2.805 4.769.444c2.623.245 7.109.674 9.969.954 6.197.607 19.605-.397 24.089-1.804 1.368-.429 3.529-.948 4.801-1.153 1.272-.205 3.025-.736 3.896-1.18.871-.444 1.953-.807 2.405-.807.451 0 1.448-.334 2.215-.741.767-.408 2.114-.974 2.994-1.258.88-.285 2.029-.851 2.554-1.259.525-.408 1.265-.742 1.646-.742s1.124-.34 1.653-.756c.528-.415 1.587-1.049 2.354-1.408 1.364-.639 4.002-2.18 5.193-3.035.33-.237.978-.649 1.44-.916 7.073-4.086 19.371-16.465 25.046-25.211 3.202-4.934 7.523-12.937 8.138-15.074.158-.55.623-1.627 1.032-2.394.409-.767.744-1.674.744-2.015 0-.342.358-1.325.796-2.184.439-.859.992-2.652 1.229-3.985.238-1.332.663-2.782.945-3.222.282-.44.715-1.951.962-3.358.744-4.24-.508-3.933 16.791-4.116l15.077-.159 2.239-1.084c1.231-.596 2.417-1.083 2.636-1.083.982 0 7.134-5.969 7.571-7.346.147-.461.585-1.292.974-1.846 2.463-3.508 2.136-14.069-.565-18.235-1.282-1.979-3.981-5.36-4.283-5.367-.125-.003-.833-.546-1.572-1.206-.739-.66-1.638-1.2-1.997-1.2-.359 0-1.039-.36-1.511-.8-.472-.44-1.018-.8-1.213-.8-.958 0-1.713-1.651-1.939-4.242-.275-3.165-1.979-7.499-3.895-9.906-1.608-2.022-3.422-3.852-3.817-3.852-.171 0-.79-.444-1.375-.986s-1.737-1.168-2.559-1.39c-.822-.222-1.944-.724-2.494-1.114-1.421-1.009-11.52-1.057-12.658-.061-.408.358-1.462.875-2.342 1.15-.88.275-1.973.839-2.43 1.254-1.752 1.593-3.883 1.192-4.526-.853-.311-.99-.808-1.944-1.105-2.12-.296-.176-.539-.548-.539-.828 0-.828-2.909-4.477-4.716-5.916-3.337-2.657-3.909-3.025-5.484-3.527-.88-.281-1.934-.802-2.342-1.16-1.109-.97-13.024-.961-14.116.012-.408.363-1.504.885-2.436 1.161-.931.275-1.994.833-2.362 1.239-.367.407-.865.744-1.106.75-2.614.064-8.407 9.014-9.126 14.1-.602 4.257-.918 4.46-5.952 3.835-3.849-.478-9.56.047-9.56.88 0 .194-.558.642-1.24.994-1.815.939-4.699 4.166-5.164 5.78-.893 3.095-2.097 3.846-6.964 4.348-2.754.285-4.612.672-5.026 1.047-.362.327-1.276.808-2.032 1.069-.756.26-1.609.802-1.897 1.205-.287.402-.737.735-1 .74-.262.004-1.017.664-1.677 1.465a58.84 58.84 0 0 1-2.1 2.41c-.495.524-.9 1.133-.9 1.354 0 .609-1.252 2.923-1.756 3.247-.766.492-.595 13.253.19 14.173.349.408.877 1.372 1.173 2.142.297.77.939 1.888 1.428 2.485s.951 1.234 1.027 1.417c.224.536 5.142 4.498 5.584 4.498.222 0 1.427.495 2.679 1.1l2.275 1.1 23.568.131c25.095.139 26.275.063 24.771-1.599-.627-.692-1.826-.732-21.855-.732-12.34 0-21.795-.161-22.638-.386-.795-.212-2.496-.497-3.779-.633-1.356-.143-2.614-.526-3.005-.914-.37-.367-1.171-.89-1.779-1.164-.608-.273-1.21-.768-1.337-1.1-.127-.331-.451-.603-.719-.603-.908 0-5.007-5.649-5.02-6.918-.004-.395-.303-1.895-.664-3.335-.808-3.214.014-7.92 1.911-10.947 1.491-2.377 4.708-6 5.329-6 .271 0 1.016-.45 1.655-1 .639-.549 1.528-.999 1.976-1 .447 0 1.863-.369 3.146-.82 1.887-.663 2.85-.768 5.046-.552 3.039.299 3.275.13 3.702-2.656.428-2.794 4.103-7.189 6.692-8.002.77-.241 2.003-.711 2.741-1.043 1.985-.893 7.157.213 9.16 1.96 2.935 2.56 3.758 1.881 3.837-3.163.038-2.448.249-4.228.544-4.583.266-.319.603-1.332.75-2.25.147-.918.695-2.249 1.217-2.958.523-.709.951-1.457.951-1.662 0-1.216 4.517-5.107 8.4-7.237 3.021-1.657 13.838-1.896 15.926-.352.657.486 1.643.995 2.191 1.133 2.059.517 7.954 6.971 8.455 9.257.154.7.529 1.48.834 1.733.305.253.669 1.301.808 2.328.552 4.071 1.387 4.303 4.647 1.29 4.151-3.836 6.093-4.558 12.339-4.587 4.328-.02 5.638.107 6.6.642.66.367 1.786.94 2.502 1.275 1.665.777 5.914 4.956 6.29 6.186.158.517.604 1.257.99 1.643.669.669 1.806 5.976 1.674 7.818-.031.44-.101 1.52-.156 2.4l-.1 1.6 2 .333c4.903.818 10.713 5.645 11.633 9.667.151.66.565 1.534.921 1.942.941 1.08.934 8.646-.009 9.715-.361.409-.786 1.352-.944 2.097-.494 2.323-4.692 7.255-6.69 7.862-.501.152-1.274.607-1.718 1.012-1.538 1.404-5.887 1.685-29.908 1.933-19.881.206-23.166.322-23.483.836-.517.836.025 1.23 2.05 1.493 3.507.455 3.539.889.282 3.861-1.596 1.457-3.108 2.649-3.36 2.649-.251 0-.921.405-1.487.9-1.522 1.329-4.337 2.997-5.59 3.311-.603.152-1.097.421-1.097.599s-.855.639-1.9 1.025c-1.045.385-2.184.94-2.531 1.232-.347.293-1.697.739-3 .991s-2.673.72-3.043 1.039c-.371.319-2.171.747-4 .951-1.83.204-3.664.563-4.078.797-2.158 1.224-16.013 1.365-18.824.191-.673-.281-2.394-.639-3.824-.795-3.203-.35-5.6-.958-5.6-1.419 0-.191-.897-.47-1.992-.621-1.096-.151-2.401-.594-2.9-.985-.5-.392-1.485-.838-2.189-.992-.705-.153-1.709-.616-2.232-1.027-.522-.411-1.424-.866-2.002-1.011-.579-.146-1.27-.527-1.537-.848-.266-.321-1.039-.821-1.716-1.11-.678-.29-1.632-.864-2.122-1.277-.489-.413-1.541-1.201-2.338-1.751-2.377-1.641-3.746-2.833-7.143-6.217-3.467-3.454-3.82-3.866-7.852-9.149-.657-.862-1.301-1.987-1.429-2.5-.129-.514-.391-.934-.582-.934-.191 0-.683-.675-1.094-1.5a522.22 522.22 0 0 0-3.018-5.959c-.58-1.132-1.06-2.392-1.067-2.8-.006-.408-.455-1.641-.996-2.741-.541-1.1-.989-2.63-.996-3.4-.007-.77-.373-2.195-.814-3.168-1.87-4.12-1.872-24.515-.003-29.722.452-1.26.822-2.796.822-3.415 0-.619.367-1.839.815-2.71.448-.872.998-2.392 1.223-3.379.224-.986.644-2.066.934-2.4.29-.333.739-1.267.998-2.074.259-.807.714-1.67 1.011-1.916.297-.247.66-.924.806-1.506.146-.581.658-1.549 1.139-2.151.481-.602 1.324-1.857 1.874-2.788 2.4-4.067 10.243-12.374 15.405-16.316.223-.17 1.573-1.049 3-1.953 4.294-2.718 4.795-3.208 4.795-4.686 0-1.034-.197-1.375-.9-1.564-1.18-.316-10.339-.217-12.9.139m-82.6 2.394c0 1.883-.066 2.015-1 2.015-.794 0-1 .201-1 .978 0 .883-.185.99-1.9 1.1-1.621.104-1.919.254-2.028 1.022-.113.794-.359.9-2.1.9H111.2v2.596c0 2.57.019 2.614 1.835 4.3 1.009.937 1.995 2.109 2.19 2.604.204.516.697.9 1.157.9.974 0 1.358 1.253 1.158 3.772-.173 2.17 1.093 2.89 2.612 1.486 2.2-2.032 6.557-2.15 8.673-.235.373.337 1.195.65 1.826.695l1.149.082-.141-3.317c-.218-5.104.76-6.417 5.286-7.096l1.855-.278V107.2h-2.371c-2.053 0-2.477-.134-3.158-1-.432-.55-1.153-1-1.601-1-.54 0-.857-.303-.942-.9-.081-.571-.449-.946-1.007-1.025-.742-.106-.898-.419-1-2L128.6 99.4l-3.7-.115-3.7-.115v2.015m82.38 3.39c.388.469.16.859-1.225 2.1-4.819 4.318-8.767 8.798-11.591 13.153-3.55 5.474-3.378 5.178-5.188 8.972l-2.387 5c-.42.88-.934 2.32-1.141 3.2-.207.88-.752 2.631-1.212 3.89-.46 1.26-.836 2.765-.836 3.345 0 .581-.38 2.61-.845 4.51-.943 3.852-1.227 17.676-.438 21.255.219.99.792 3.78 1.274 6.2.482 2.419 1.024 4.579 1.204 4.8.18.22.532 1.21.784 2.2.752 2.965 3.679 9.488 5.833 13 3.506 5.717 3.466 5.661 7.236 10.183 3.957 4.747 9.687 9.993 13.752 12.59.99.633 2.25 1.469 2.8 1.857 2.589 1.83 14.372 7.17 15.821 7.17.332 0 1.708.372 3.057.826 7.526 2.536 26.39 2.533 33.685-.004 1.299-.452 2.706-.822 3.125-.822.42 0 1.747-.45 2.949-1 1.203-.55 2.336-1 2.519-1 .331 0 4.799-2.125 7.871-3.743 3.622-1.909 12.149-8.306 14.934-11.204 2.748-2.86 3.72.623 1.603 5.747-.409.99-.911 2.52-1.116 3.4-.67 2.881-5.412 13.289-7.837 17.2-.546.88-1.363 2.23-1.818 3-.454.77-1.224 1.94-1.712 2.6-.488.66-1.682 2.28-2.654 3.6-2.096 2.845-13.197 14.057-15.284 15.437-3.678 2.431-7.361 4.981-7.543 5.221-.11.146-1.82 1.105-3.8 2.131a623.658 623.658 0 0 0-4.2 2.19c-1.975 1.067-10.4 4.421-11.107 4.421-.244 0-1.85.431-3.568.959-9.918 3.043-26.726 3.89-35.725 1.8l-4.2-.976-.318-3.54c-.341-3.803-1.313-6.28-3.605-9.19-1.292-1.64-5.701-5.053-6.528-5.053-.992 0-1.698-1.256-1.969-3.5-1.346-11.173-15.248-18.401-25.207-13.106-2.834 1.507-3.838 1.363-4.851-.694-1.604-3.258-6.399-8.3-7.893-8.3-.113 0-1.156-.43-2.317-.956-1.162-.526-2.857-1.079-3.768-1.228-2.263-.371-6.085-6.008-6.157-9.081-.006-.294-.455-1.435-.996-2.535-.541-1.1-.985-2.409-.987-2.91-.002-.5-.353-1.902-.779-3.114-.426-1.213-.975-3.593-1.219-5.291a105.746 105.746 0 0 0-1.095-6.085c-.962-4.431-.928-18.386.058-23.8 2.362-12.978 4.939-21.168 8.999-28.6.661-1.21 1.483-2.789 1.826-3.509 3.368-7.063 17.102-22.809 23.406-26.834.55-.351 2.195-1.497 3.656-2.548 1.461-1.05 2.738-1.909 2.838-1.909.101 0 1.696-.9 3.545-2 1.848-1.1 3.501-2 3.671-2 .171 0 2.022-.811 4.115-1.802 2.092-.99 4.645-1.99 5.673-2.22 1.028-.23 2.082-.595 2.341-.811.26-.215 1.798-.661 3.417-.99 1.619-.329 3.403-.78 3.964-1.003.561-.223 2.181-.555 3.6-.739 1.419-.183 2.693-.356 2.831-.384.138-.028.466.208.729.524m-76.976 3.444c.251 1.14 1.371 1.755 3.755 2.059 1.731.22 1.856 1.163.435 3.269-1.144 1.695-1.265 2.128-1.044 3.744.393 2.865-1.054 3.758-3.488 2.154-1.274-.84-2.311-.712-3.945.486-1.586 1.163-2.317.403-2.317-2.407 0-1.672-.221-2.473-.954-3.451-1.926-2.572-1.555-3.873 1.105-3.873.719 0 1.54-.622 2.899-2.196 2.087-2.418 2.988-2.363 3.554.215m61.675 4.019c-1.516.357-4.826 1.739-7.479 3.123-4.097 2.137-6.763 3.634-8.156 4.581-.856.582-1.666 1.059-1.8 1.061-.134.001-.55.54-.924 1.196-1.047 1.841.329 2.469 2.413 1.102a143.51 143.51 0 0 1 3.067-1.942c.88-.538 1.96-1.204 2.4-1.479 1.594-.996 10.408-4.959 12.2-5.484 1.611-.473 2.04-.973 1.578-1.838-.439-.82-.959-.87-3.299-.32m33.633 8.659c-.573.607-1.24 1.848-1.481 2.759-.564 2.133-1.779 2.913-5.002 3.214-4.125.385-4.341 1.572-.928 5.083 1.885 1.938 2.101 2.795 1.609 6.38-.411 2.994-.255 3.448 1.19 3.461.385.003 1.057-.351 1.492-.786 1.803-1.803 6.488-1.877 7.88-.126.259.327 1.069.622 1.8.656l1.328.062v-8.166l2.053-2.117c2.882-2.972 2.55-4.089-1.323-4.451-3.038-.283-4.404-1.017-4.787-2.571-.223-.904-1.247-2.594-2.544-4.198-.134-.166-.713.194-1.287.8m2.661 5.094c.538 1.035 1.212 1.699 1.927 1.9 3.355.942 3.303.91 3.224 2.036-.042.598-.447 1.558-.9 2.134-.617.784-.824 1.63-.824 3.369 0 3.075-1.262 3.713-4.073 2.06-1.006-.591-1.183-.572-2.863.32-2.4 1.273-3.064.768-3.064-2.333 0-1.669-.198-2.437-.794-3.07-2.052-2.185-1.457-3.712 1.711-4.391.716-.154 1.571-.885 2.386-2.041 1.501-2.13 2.157-2.127 3.27.016m-67.19 7.109c-1.039 1.155-2.36 2.73-2.934 3.5-.575.77-1.145 1.49-1.267 1.6-.285.255-2.332 3.264-3.827 5.624-2.296 3.626-7.355 14.406-7.355 15.675 0 .33-.352 1.395-.782 2.367-.43.972-.9 2.57-1.044 3.551-.145.981-.603 3.122-1.018 4.758-.416 1.637-.756 3.647-.756 4.468 0 5.258 2.497 2.398 3.437-3.936.995-6.711 5.832-19.559 9.375-24.907.365-.55 1.186-1.81 1.825-2.8 1.125-1.741 3.114-4.321 6.119-7.939 3.308-3.982 1.675-5.79-1.773-1.961M271.7 165.076c.385.1 1.015.1 1.4 0 .385-.101.07-.183-.7-.183s-1.085.082-.7.183m55.8 6.006a5.661 5.661 0 0 0 1.8 0c.495-.095.09-.173-.9-.173s-1.395.078-.9.173m-67.552 4.996-1.052 1.077 1.134.395c1.279.447 1.859-.366 1.279-1.792-.289-.71-.376-.69-1.361.32m-17.115 4.888c.3.297 4.341.393 4.624.11.152-.152-.864-.276-2.257-.276-1.393 0-2.458.075-2.367.166m-40.949 51.715c-.398.102-1.238 1.289-1.893 2.675-1.673 3.542-2.487 4.177-5.891 4.605-4.536.569-4.752 1.507-1.187 5.14 2.011 2.049 2.058 2.152 1.941 4.2a202.97 202.97 0 0 0-.187 4.299l-.067 2.2 1.195-.088c.658-.049 2.008-.525 3-1.057 3.181-1.708 4.043-1.707 7.212.005 3.07 1.658 4.262 1.568 4.123-.312-.038-.522-.122-2.343-.186-4.048l-.117-3.1 2.035-2.1c3.201-3.303 3.057-5.059-.416-5.087-3.86-.032-4.709-.77-7.807-6.789-.344-.669-.76-.798-1.755-.543m2.523 7.14c.439 1.33 1.999 2.17 4.044 2.177 1.303.004 1.758 1.147.81 2.031-.474.441-.861.975-.861 1.187 0 .211-.389.773-.865 1.249-.794.794-.827 1.013-.394 2.629.259.969.368 1.93.241 2.134-.311.505-2.481.474-2.652-.037-.314-.944-3.137-.936-4.418.011-1.776 1.313-2.499.725-2.556-2.076-.037-1.838-.272-2.495-1.486-4.154-1.656-2.264-1.423-2.778 1.468-3.24 1.216-.195 1.734-.547 2.356-1.602 1.638-2.776 3.456-2.907 4.313-.309m-56.864 49.247c-.636.168-1.245 1.897-.819 2.323.296.296 5.076.261 5.868-.043 2.237-.859-2.444-2.973-5.049-2.28m-8.877 1.001c-.312 1.192-.016 1.531 1.334 1.531s1.646-.339 1.334-1.531c-.164-.628-.534-.869-1.334-.869s-1.17.241-1.334.869" fill="#513831"/>
        <path id="bright-moon_svg__path3" d="M207.467 57.467c-.461.46-.292.933.333.933.33 0 .6-.27.6-.6 0-.625-.473-.794-.933-.333m71.423 8.749c-.061.743.114.984.714.984.987 0 1.016-.477.082-1.322-.666-.603-.72-.581-.796.338M188.4 68.6c-.408.491-.38.6.151.6.357 0 .649-.27.649-.6 0-.33-.068-.6-.151-.6-.083 0-.375.27-.649.6m110.753 13.5c-.133 2.519.371 4.501 1.437 5.651.941 1.015 1.12 1.049 5.591 1.049h4.619v-2.818c0-4.374-.578-4.782-6.782-4.782-4.716 0-4.819.019-4.865.9m2.436 7.8c-.831.589-2.12.722-8.091.839-7.751.151-9.435.737-8.287 2.881.693 1.296 1.233 1.377 10.607 1.58 7.885.171 9.373.301 10.286.9.621.407 1.828.7 2.882.7h1.814v-7.6h-4.111c-3.272 0-4.313.143-5.1.7m3.811 7.792c-2.733.669-3.369 1.045-3.648 2.156-.559 2.227.83 2.686 9.162 3.029 1.767.072 2.101.174 1.41.429-.74.274-.798.401-.318.698 1.814 1.121-.416 1.396-12.965 1.596-13.584.217-13.841.262-13.841 2.425 0 1.732.162 1.756 13.8 2.064 7.04.159 16.625.397 21.3.529l8.5.24v-2.829c0-2.817-.005-2.829-1.1-2.841-1.025-.011-1.046-.043-.3-.466 1.258-.713 1.387-1.124 1.394-4.422l.006-3.1-10.9.051c-5.995.027-11.62.226-12.5.441m-48.676.808c-.967.769-1.234 2.533-.496 3.271.942.942 41.185.953 43.005.012 1.47-.76.701-2.649-1.372-3.372-1.836-.64-40.325-.557-41.137.089m7.876 7.364c-1.842.511-2.424 2.255-1.171 3.507 1.02 1.021 7.996.903 8.557-.145.582-1.086.515-2.244-.162-2.806-.62-.514-5.907-.921-7.224-.556m13.2.067c-1.662.193-2.092.66-1.888 2.049.357 2.431 5.062 2.992 5.865.699.704-2.013-.879-3.107-3.977-2.748m-122.231 3.436c-.322.351-.152 1.431.25 1.585.367.141.46-.001.291-.442-.184-.48-.08-.584.4-.4.429.165.582.075.452-.264-.148-.386-1.159-.734-1.393-.479m130.234 4.729-1.143.983.857 1.205c1.86 2.612 9.648 2.186 10.339-.565.62-2.469-7.539-3.785-10.053-1.623M88.4 138.6c-.408.491-.38.6.151.6.357 0 .649-.27.649-.6 0-.33-.068-.6-.151-.6-.083 0-.375.27-.649.6m184.4 1.041c-.369.5-1.249.898-2.289 1.037-1.154.153-1.763.455-1.921.953-.127.4-.611.849-1.077.996-.465.148-1.311.831-1.879 1.517-.569.687-1.439 1.631-1.934 2.098-.495.468-.9 1.089-.9 1.382 0 .293-.446 1.177-.991 1.964-.924 1.333-.999 1.813-1.1 7.031-.138 7.085-2.148 9.978-4.971 7.155-.536-.536-1.205-.974-1.486-.974-.282 0-.935-.45-1.452-1-1.371-1.459-8.991-1.532-10.532-.1a126.52 126.52 0 0 1-2.218 1.994c-.688.601-1.25 1.431-1.25 1.844 0 .413-.45 1.413-1 2.224-.55.81-1 1.916-1 2.456 0 2.166-1.094 2.582-6.782 2.582-4.994 0-5.218.036-6.182 1-.55.55-1.458 1-2.018 1-.645 0-1.018.223-1.018.609 0 .334-.43.804-.956 1.044-.526.239-1.152.865-1.391 1.391-.24.526-.71.956-1.044.956-.349 0-.609.353-.609.826 0 1.015-.73 2.464-1.458 2.894-.988.583-.758 10.536.255 11.079.495.264.892 1.015 1.046 1.979.173 1.08.487 1.615 1.032 1.758.432.112.876.556.989.986.112.429.639.979 1.17 1.221.531.242.966.691.966.997 0 .34.616.656 1.578.81.895.143 1.817.593 2.13 1.039.536.766 1.208.79 25.267.899l24.717.112 1.508 1.7c2.188 2.466 6.309 2.173 7.544-.536.589-1.294 2.035-1.364 28.124-1.364 20.861 0 23.987-.077 24.186-.596.126-.328.965-.817 1.864-1.087 1.674-.501 5.882-4.302 5.882-5.312 0-.279.36-.754.8-1.056 1.723-1.182 1.695-13.447-.034-14.658-.421-.295-.766-.768-.766-1.052 0-.89-3.835-4.325-5.447-4.88-.849-.291-1.745-.806-1.992-1.144-.847-1.159-7.791-.861-8.961.385-.517.55-1.268 1-1.67 1-.448 0-.73.291-.73.754 0 .415-.45 1.049-1 1.409-.608.399-1 1.033-1 1.618 0 1.73-1.352 2.594-2.826 1.805-1.307-.699-.642-6.786.741-6.786.196 0 .562-.45.812-1 .251-.55.697-1 .992-1 .295 0 .919-.44 1.387-.978.486-.559 1.502-1.09 2.372-1.24.837-.144 2.287-.62 3.222-1.058l1.7-.795v-2.703c0-2.194-.15-2.838-.8-3.426-.44-.398-.8-1.011-.8-1.362 0-.899-3.15-5.238-3.803-5.238-.296 0-.871-.422-1.277-.938-.42-.534-1.392-1.061-2.252-1.223-.833-.156-1.814-.634-2.18-1.061-1.004-1.173-8.85-1.171-9.583.002-.268.43-1.164.905-1.996 1.059-.83.153-1.9.657-2.378 1.12-.478.462-1.75 1.696-2.826 2.741-2.568 2.493-4.878 2.735-5.722.6-.283-.715-.764-1.594-1.068-1.953-.304-.359-.744-1.889-.977-3.4-.239-1.547-.669-2.888-.985-3.069-.308-.177-.817-.897-1.13-1.6-.665-1.494-3.139-4.278-3.802-4.278-.251 0-.885-.427-1.407-.949-.522-.523-1.569-1.066-2.327-1.208-.757-.142-1.7-.615-2.094-1.051-1.096-1.211-10.091-1.171-10.993.049m60 2.759c0 .533.267.8.8.8.907 0 1.025-.415.32-1.12-.705-.705-1.12-.587-1.12.32m6 4c0 .533.267.8.8.8.907 0 1.025-.415.32-1.12-.705-.705-1.12-.587-1.12.32m-63.481 17.169c1.83.696 1.789 2.658-.063 3.076-.581.131-2.167.67-3.524 1.197-1.358.527-2.904.958-3.436.958-.644 0-1.12.335-1.423 1-.251.55-.722 1-1.048 1-.355 0-.788.684-1.079 1.7-.267.935-.614 1.88-.769 2.1-.156.22-.49 1.378-.742 2.573-.671 3.182-2.546 4.462-3.614 2.465-.929-1.734-8.821-1.555-8.821.201 0 1.795-3.254 4.662-4.934 4.347-2.144-.402-6.998.569-7.279 1.456-.126.395-.557.821-.958.949-.465.147-.819.773-.974 1.72-.23 1.402-2.54 4.489-3.358 4.489-2.163 0-2.564-4.086-.674-6.867 1.326-1.952 4.044-4.733 4.626-4.733.211 0 .877-.365 1.481-.811.767-.567 2.052-.898 4.269-1.1 3.169-.289 3.174-.291 4.297-1.965.619-.922 1.522-1.803 2.007-1.957.485-.154 1.358-.632 1.941-1.063 1.06-.783 6.514-1.148 7.555-.505.232.144.515-.271.652-.952.132-.663.58-1.513.995-1.889.415-.375.754-.921.754-1.213 0-.895 3.328-4.062 4.6-4.377.66-.164 1.427-.616 1.704-1.007.741-1.041 5.809-1.555 7.815-.792M61.68 167.68c-.584.584-.622 1.12-.08 1.12.22 0 .355-.225.3-.5-.055-.275.125-.455.4-.4.275.055.5-.08.5-.3 0-.542-.536-.504-1.12.08m15.997 5.005c-1.266.242-1.945 1.808-1.35 3.115.919 2.017 8.473 1.235 8.473-.878 0-2.033-3.098-3.006-7.123-2.237m-15.539 7.786c-1.248.604-1.505 2.353-.474 3.229 1.307 1.109 21.485 1.062 22.493-.053.824-.91.511-2.675-.577-3.258-.996-.533-20.323-.459-21.442.082m-30.938 5.72c0 .81-.198 1.009-1 1.009-.972 0-1 .079-1 2.817v2.816l7.7-.216c4.235-.12 14.09-.307 21.9-.417 16.151-.228 15.497-.154 16.71-1.894l.91-1.306-1.51-.69c-1.328-.606-3.077-.691-14.51-.705-14.126-.017-14.696-.069-14.878-1.346-.119-.837-.303-.862-7.222-.968l-7.1-.109v1.009m47.1 1.966c-.87.66-.908 2.378-.071 3.214 1.923 1.924 8.571.499 8.571-1.837 0-1.762-6.588-2.829-8.5-1.377m11.757.088c-.953.668-.943 2.088.024 3.253.584.703 11.1.705 12.022.002 1.118-.853 1.059-2.772-.103-3.372-1.564-.807-10.752-.717-11.943.117M37.2 197v3.8h1.786c.983 0 2.378-.261 3.1-.579.723-.319 2.172-.69 3.222-.826 3.594-.464 3.984-3.766.521-4.416-.757-.142-1.686-.6-2.065-1.019-.557-.615-1.247-.76-3.626-.76H37.2v3.8m16.126-1.797c-1.384.558-1.903 1.867-1.179 2.973 1.401 2.138 5.853 1.062 5.853-1.415 0-1.156-3.103-2.191-4.674-1.558m8.273.741-1.37 1.144 1.374 1.256 1.375 1.256h38.16l1.284-1.283 1.283-1.284-1.337-1.116-1.338-1.117H62.97l-1.371 1.144m2.601 6.318-1.604.337c-.442.092-1.126.713-1.519 1.379l-.715 1.21 1.319.829c1.715 1.078 8.67 1.003 9.778-.105 2.263-2.263-2.498-4.657-7.259-3.65m-25 15.314c0 .425.75.964 1.5 1.077.275.042.5-.088.5-.288 0-.201-.27-.365-.6-.365-.33 0-.6-.18-.6-.4 0-.22-.18-.4-.4-.4-.22 0-.4.169-.4.376m318.239 3.962c-.139.223-.057.527.181.674.615.381 1.012-.14.498-.654-.287-.287-.511-.294-.679-.02M44 230.951c0 .083.27.375.6.649.491.408.6.38.6-.151 0-.357-.27-.649-.6-.649-.33 0-.6.068-.6.151m88.712 6.627c-.366.427-1.317.899-2.113 1.048-1.58.297-5.471 3.711-5.951 5.221-.147.466-.624 1.169-1.058 1.562-.701.635-.79 1.243-.79 5.424 0 5.647-.185 5.967-3.448 5.967-1.828 0-2.345-.167-3.126-1.01-1.444-1.558-7.999-1.57-9.236-.018-.451.565-1.128 1.028-1.505 1.028-.481 0-.685.328-.685 1.103 0 1.889-.643 3.442-2.047 4.942l-1.353 1.444-4.8.243c-4.515.228-4.848.302-5.615 1.255-.448.557-1.102 1.013-1.453 1.013s-.736.373-.856.83c-.119.456-.59.927-1.046 1.046-.576.151-.83.541-.83 1.274 0 .581-.45 1.902-1 2.935-1.102 2.07-1.306 4.112-.445 4.443.306.117.789 1.123 1.074 2.235.559 2.18 3.868 6.037 5.18 6.037.367 0 .993.36 1.391.8.705.779 1.232.8 20.236.8 19.476 0 21.564.135 21.564 1.39 0 .879 1.437.752 2.329-.206 1.409-1.512 5.671-1.357 5.671.206 0 .411.391.61 1.2.61.809 0 1.2-.199 1.2-.61 0-2.243 8.123-1.793 9.2.51.981 2.096 5.874 1.976 8.102-.2l1.535-1.5 9.402-.121c8.747-.112 9.458-.176 10.194-.912.436-.436 1.32-.898 1.964-1.026.645-.129 1.454-.664 1.797-1.188.343-.524.87-.953 1.171-.953.303 0 .658-.598.798-1.345.139-.74.609-1.668 1.045-2.062 1.184-1.072 1.178-7.72-.008-8.793-.44-.398-.8-.934-.8-1.19 0-.628-1.983-2.781-3.1-3.367-.495-.259-.9-.719-.9-1.022 0-1.244-8.601-1.025-8.929.228-.116.446-.585.908-1.041 1.027-.533.14-.83.543-.83 1.126 0 1.688-1.33 2.85-2.599 2.271-2.738-1.247-.254-7.868 3.271-8.715.62-.149 1.45-.605 1.844-1.014.393-.409.978-.744 1.3-.744.937 0 .815-4.464-.139-5.059-.398-.249-.945-1.192-1.216-2.097-.289-.964-.738-1.644-1.086-1.644-.326 0-.797-.45-1.048-1-.3-.66-.78-1-1.409-1-.525 0-1.404-.45-1.954-1-.932-.932-1.269-1-4.964-1-3.695 0-4.032.068-4.964 1-.55.55-1.437 1-1.971 1-.634 0-1.044.277-1.18.798-.115.439-.514.915-.887 1.058-.373.143-1.102.684-1.62 1.202-2.024 2.025-4.958.653-4.987-2.332-.005-.509-.361-1.376-.791-1.926-.43-.55-.786-1.288-.791-1.64-.017-1.238-.893-3.16-1.441-3.16-.304 0-.666-.45-.804-1-.15-.597-.537-1-.961-1-.391 0-.989-.425-1.33-.945-.403-.615-1.162-1.031-2.178-1.193-.858-.138-1.888-.613-2.29-1.056-1.061-1.173-6.895-1.194-7.893-.028M369.9 266.067c-.592.62-.606.733-.087.733.336 0 .719-.278.849-.617.347-.904.036-.952-.762-.116m-9.728 21.088c.272.44-.747 1.337-1.109.975-.145-.145-.263-.053-.263.203 0 .641.738.586 1.429-.104.672-.672.75-1.429.147-1.429-.233 0-.325.16-.204.355M337.7 301.798c-.668.76-.63.95.167.833.366-.053.711-.398.764-.764.119-.808-.256-.836-.931-.069M233.6 313.12c0 .176.216.536.48.8.705.705 1.12.587 1.12-.32 0-.533-.267-.8-.8-.8-.44 0-.8.144-.8.32m59.839 4.418c-.139.223-.057.527.181.674.615.381 1.012-.14.498-.654-.287-.287-.511-.294-.679-.02m-79.267 7.617c.272.44-.747 1.337-1.109.975-.145-.145-.263-.053-.263.203 0 .641.738.586 1.429-.104.672-.672.75-1.429.147-1.429-.233 0-.325.16-.204.355M133.6 329.12c0 .484.897 1.28 1.443 1.28.285 0 .397-.326.273-.8-.197-.751-1.716-1.176-1.716-.48m57.839 6.418c-.139.223-.057.527.181.674.615.381 1.012-.14.498-.654-.287-.287-.511-.294-.679-.02m-33.839 1.613c0 .532 1.182 1.401 1.488 1.094.674-.673.394-1.445-.523-1.445-.531 0-.965.158-.965.351" fill="#fafbed"/>
        <path id="bright-moon_svg__path4" d="M204.92 97.603c-3.268.197-6.317.627-8 1.128-1.496.445-3.582.924-4.637 1.066-1.054.141-2.674.601-3.6 1.021-.925.421-2.043.77-2.483.777-.44.007-1.7.455-2.8.996-1.1.541-2.36.991-2.8.999-.44.008-1.52.458-2.4 1-.88.542-1.88.991-2.222.998-.343.006-1.233.462-1.978 1.012-.745.55-1.656 1-2.024 1-.367 0-1.175.399-1.795.887a21.213 21.213 0 0 1-2.22 1.5l-2.653 1.484c-.859.479-1.797 1.154-2.084 1.5-.287.346-.701.629-.92.629-.353 0-1.845 1.117-4.02 3.009-.394.343-1.159.791-1.7.997-.541.206-.984.649-.984.984 0 .336-.137.61-.306.61-.339 0-6.88 6.342-9.715 9.422-1.691 1.836-5.257 6.373-6.179 7.861-.22.355-1.165 1.74-2.1 3.077s-1.7 2.681-1.7 2.986c0 .306-.295.801-.655 1.099-.36.299-.987 1.266-1.395 2.149-.407.883-.903 1.876-1.102 2.206-1.032 1.708-2.777 5.566-3.021 6.678-.153.697-.523 1.47-.821 1.717-.299.248-.668 1.206-.819 2.128-.152.922-.706 2.594-1.232 3.716-.525 1.121-.959 2.651-.964 3.4-.005.748-.373 2.164-.818 3.146-.464 1.022-.96 3.329-1.161 5.4-.193 1.988-.635 4.688-.981 5.999-.903 3.414-.903 19.418 0 22.832.346 1.311.792 4.049.989 6.084.198 2.035.626 4.216.952 4.847.327.63.767 2.225.979 3.542.212 1.318.76 3.095 1.218 3.948.457.853.831 1.902.831 2.331 0 .429.35 1.511.777 2.406 2.131 4.461 1.788 7.426-.859 7.426-1.394 0-6.603 4.676-7.798 7-.339.66-.869 1.489-1.178 1.842-.309.354-.755 1.742-.992 3.085-.569 3.232-.947 3.51-3.92 2.879-4.979-1.056-12.562 2.945-14.034 7.405-.562 1.705-2.304 2.332-5.917 2.129-2.059-.116-2.48-.032-2.48.496.003 2.751 8.664.958 9.393-1.945.145-.578.656-1.452 1.136-1.942.479-.49 1.052-1.082 1.272-1.316 2.459-2.614 5.203-3.417 10.421-3.051 4.355.306 4.736.042 5.139-3.567.147-1.311.434-2.488.638-2.614.204-.126.662-.925 1.017-1.776.555-1.329 3.333-4.366 6.129-6.702.445-.372 1.553-.9 2.46-1.172 2.558-.766 4.026-3.164 2.64-4.314-.305-.254-.769-1.311-1.03-2.349-.261-1.038-.71-2.158-.999-2.488-.289-.33-.732-1.588-.986-2.795-.254-1.207-.705-2.566-1.002-3.02-.297-.454-.744-2.138-.993-3.743s-.7-3.397-1.002-3.98c-.301-.584-.657-2.232-.79-3.662-1.526-16.382-1.529-16.443-1.076-20.94.246-2.453.624-6.672.838-9.375.224-2.81.644-5.405.984-6.061.326-.631.796-2.454 1.044-4.052.247-1.598.78-3.55 1.184-4.339.403-.788.857-2.153 1.009-3.033.152-.88.507-1.87.788-2.2.282-.33.727-1.404.988-2.386.262-.982.806-2.206 1.21-2.719.403-.513.857-1.509 1.008-2.214.15-.704.478-1.53.727-1.834.465-.568 1.695-2.807 2.849-5.188.357-.737.998-1.714 1.423-2.17.425-.457.883-1.176 1.017-1.599.134-.423.508-1.066.83-1.429 1.274-1.435 3.327-4.28 3.331-4.615.002-.195.409-.758.904-1.252.495-.494 1.71-1.831 2.7-2.972 2.386-2.748 6.72-7.222 6.997-7.222.121 0 1.104-.855 2.185-1.9s3.347-2.89 5.035-4.1c1.688-1.21 3.392-2.497 3.787-2.861.394-.363 1.14-.792 1.657-.954.516-.162 1.448-.72 2.07-1.24.622-.52 1.359-.945 1.638-.945.279 0 .824-.35 1.21-.777.387-.428 1.217-.89 1.844-1.028s1.556-.578 2.065-.978c.508-.4 1.618-.919 2.466-1.153.847-.234 1.834-.679 2.193-.988.359-.31 1.553-.782 2.653-1.05 1.1-.267 2.27-.728 2.6-1.023.33-.295 1.77-.745 3.2-.999 1.43-.254 2.968-.699 3.418-.988.45-.29 2.52-.746 4.6-1.013 2.08-.268 4.412-.752 5.182-1.075 1.579-.663 12.494-1.224 14.93-.768 3.296.619 2.095 2.911-3.325 6.342-6.324 4.005-15.167 12.782-18.405 18.269-.55.931-1.393 2.186-1.874 2.788-.481.602-.993 1.57-1.139 2.151-.146.582-.509 1.259-.806 1.506-.297.246-.752 1.109-1.011 1.916-.259.807-.708 1.741-.998 2.074-.29.334-.71 1.414-.934 2.4-.225.987-.775 2.507-1.223 3.379-.448.871-.815 2.091-.815 2.71 0 .619-.37 2.155-.822 3.415-1.869 5.207-1.867 25.602.003 29.722.441.973.807 2.398.814 3.168.007.77.455 2.3.996 3.4.541 1.1.99 2.333.996 2.741.007.408.487 1.668 1.067 2.8a522.22 522.22 0 0 1 3.018 5.959c.411.825.903 1.5 1.094 1.5.191 0 .453.42.582.934.231.923 1.517 2.749 5.052 7.179 2.4 3.006 8.359 8.606 11.372 10.687.797.55 1.849 1.338 2.338 1.751.49.413 1.444.987 2.122 1.277.677.289 1.45.789 1.716 1.11.267.321.958.702 1.537.848.578.145 1.48.6 2.002 1.011.523.411 1.527.874 2.232 1.027.704.154 1.689.6 2.189.992.499.391 1.804.834 2.9.985 1.095.151 1.992.43 1.992.621 0 .461 2.397 1.069 5.6 1.419 1.43.156 3.151.514 3.824.795 2.811 1.174 16.666 1.033 18.824-.191.414-.234 2.248-.593 4.078-.797 1.829-.204 3.629-.632 4-.951.37-.319 1.74-.787 3.043-1.039 1.303-.252 2.653-.698 3-.991.347-.292 1.486-.847 2.531-1.232 1.045-.386 1.9-.847 1.9-1.025 0-.178.494-.447 1.097-.599 1.253-.314 4.068-1.982 5.59-3.311.566-.495 1.236-.9 1.487-.9.252 0 1.764-1.192 3.36-2.649 3.257-2.972 3.225-3.406-.282-3.861-2.025-.263-2.567-.657-2.05-1.493.317-.514 3.602-.63 23.483-.836 24.021-.248 28.37-.529 29.908-1.933.444-.405 1.217-.86 1.718-1.012 1.998-.607 6.196-5.539 6.69-7.862.158-.745.583-1.688.944-2.097.943-1.069.95-8.635.009-9.715-.356-.408-.77-1.282-.921-1.942-.92-4.022-6.73-8.849-11.633-9.667l-2-.333.1-1.6c.055-.88.125-1.96.156-2.4.132-1.842-1.005-7.149-1.674-7.818-.386-.386-.832-1.126-.99-1.643-.376-1.23-4.625-5.409-6.29-6.186a48.739 48.739 0 0 1-2.502-1.275c-.962-.535-2.272-.662-6.6-.642-6.246.029-8.188.751-12.339 4.587-3.26 3.013-4.095 2.781-4.647-1.29-.139-1.027-.503-2.075-.808-2.328-.305-.253-.68-1.033-.834-1.733-.501-2.286-6.396-8.74-8.455-9.257-.548-.138-1.534-.647-2.191-1.133-2.088-1.544-12.905-1.305-15.926.352-3.883 2.13-8.4 6.021-8.4 7.237 0 .205-.428.953-.951 1.662-.522.709-1.07 2.04-1.217 2.958-.147.918-.484 1.931-.75 2.25-.295.355-.506 2.135-.544 4.583-.079 5.044-.902 5.723-3.837 3.163-2.003-1.747-7.175-2.853-9.16-1.96-.738.332-1.971.802-2.741 1.043-2.589.813-6.264 5.208-6.692 8.002-.427 2.786-.663 2.955-3.702 2.656-2.196-.216-3.159-.111-5.046.552-1.283.451-2.699.82-3.146.82-.448.001-1.337.451-1.976 1-.639.55-1.384 1-1.655 1-.621 0-3.838 3.623-5.329 6-1.897 3.027-2.719 7.733-1.911 10.947.361 1.44.66 2.94.664 3.335.013 1.269 4.112 6.918 5.02 6.918.268 0 .592.272.719.603.127.332.729.827 1.337 1.1.608.274 1.409.797 1.779 1.164.391.388 1.649.771 3.005.914 1.283.136 2.984.421 3.779.633.843.225 10.298.386 22.638.386 20.029 0 21.228.04 21.855.732 1.504 1.662.324 1.738-24.771 1.599L225.4 207.8l-2.275-1.1c-1.252-.605-2.457-1.1-2.679-1.1-.442 0-5.36-3.962-5.584-4.498-.076-.183-.538-.82-1.027-1.417-.489-.597-1.131-1.715-1.428-2.485-.296-.77-.824-1.734-1.173-2.142-.785-.92-.956-13.681-.19-14.173.504-.324 1.756-2.638 1.756-3.247 0-.221.405-.83.9-1.354a58.84 58.84 0 0 0 2.1-2.41c.66-.801 1.415-1.461 1.677-1.465.263-.005.713-.338 1-.74.288-.403 1.141-.945 1.897-1.205.756-.261 1.67-.742 2.032-1.069.414-.375 2.272-.762 5.026-1.047 4.867-.502 6.071-1.253 6.964-4.348.465-1.614 3.349-4.841 5.164-5.78.682-.352 1.24-.8 1.24-.994 0-.833 5.711-1.358 9.56-.88 5.034.625 5.35.422 5.952-3.835.719-5.086 6.512-14.036 9.126-14.1.241-.006.739-.343 1.106-.75.368-.406 1.431-.964 2.362-1.239.932-.276 2.028-.798 2.436-1.161 1.092-.973 13.007-.982 14.116-.012.408.358 1.462.879 2.342 1.16 1.575.502 2.147.87 5.484 3.527 1.807 1.439 4.716 5.088 4.716 5.916 0 .28.243.652.539.828.297.176.794 1.13 1.105 2.12.643 2.045 2.774 2.446 4.526.853.457-.415 1.55-.979 2.43-1.254.88-.275 1.934-.792 2.342-1.15 1.138-.996 11.237-.948 12.658.061.55.39 1.672.892 2.494 1.114.822.222 1.974.848 2.559 1.39.585.542 1.204.986 1.375.986.395 0 2.209 1.83 3.817 3.852 1.916 2.407 3.62 6.741 3.895 9.906.226 2.591.981 4.242 1.939 4.242.195 0 .741.36 1.213.8.472.44 1.152.8 1.511.8s1.258.54 1.997 1.2c.739.66 1.447 1.203 1.572 1.206.302.007 3.001 3.388 4.283 5.367 2.701 4.166 3.028 14.727.565 18.235-.389.554-.827 1.385-.974 1.846-.437 1.377-6.589 7.346-7.571 7.346-.219 0-1.405.487-2.636 1.083l-2.239 1.084-15.077.159c-17.299.183-16.047-.124-16.791 4.116-.247 1.407-.68 2.918-.962 3.358-.282.44-.707 1.89-.945 3.222-.237 1.333-.79 3.126-1.229 3.985-.438.859-.796 1.842-.796 2.184 0 .341-.335 1.248-.744 2.015-.409.767-.874 1.844-1.032 2.394-.615 2.137-4.936 10.14-8.138 15.074-5.675 8.746-17.973 21.125-25.046 25.211-.462.267-1.11.679-1.44.916-1.191.855-3.829 2.396-5.193 3.035-.767.359-1.826.993-2.354 1.408-.529.416-1.272.756-1.653.756s-1.121.334-1.646.742c-.525.408-1.674.974-2.554 1.259-.88.284-2.227.85-2.994 1.258-.767.407-1.764.741-2.215.741-.452 0-1.534.363-2.405.807-.871.444-2.624.975-3.896 1.18-1.272.205-3.433.724-4.801 1.153-4.484 1.407-17.892 2.411-24.089 1.804-2.86-.28-7.346-.709-9.969-.954l-4.769-.444-2.723 2.805c-2.038 2.099-3.477 3.163-5.72 4.227l-2.996 1.422h-9.188c-9.544 0-9.894-.066-9.26-1.734l.381-1.002 9.557-.132 9.557-.132 1.765-1.19c1.982-1.336 4.764-3.853 4.765-4.31 0-.165.347-.647.771-1.071 1.802-1.802 1.693-10.494-.166-13.294-2.134-3.213-5.126-5.399-7.605-5.556-2.032-.128-3.133-1.817-3.041-4.664.104-3.196-.513-6.046-1.38-6.378-.318-.123-.579-.458-.579-.746 0-.596-2.863-3.791-3.397-3.791-.194 0-.746-.371-1.228-.824-2.269-2.131-12.437-2.172-14.686-.059-.517.485-1.119.883-1.336.883-.218 0-.976.598-1.684 1.329-1.059 1.093-3.637 1.742-3.671.926-.072-1.692-.971-4.948-1.579-5.722-.451-.572-.819-1.254-.819-1.515 0-.26-.405-.854-.9-1.318a39.918 39.918 0 0 1-1.395-1.372c-3.751-3.998-13.088-6.036-17.223-3.758a71.09 71.09 0 0 1-2.682 1.369c-4.321 2.091-7.37 7.561-7.614 13.661-.048 1.21-.11 2.584-.137 3.053-.061 1.07-1.437 1.485-2.134.644-3.525-4.247-12.581-2.86-15.034 2.303-.261.55-.646 1.27-.854 1.6-.209.33-.477 1.07-.597 1.644-.21 1.01-.332 1.051-3.731 1.245-3.558.203-7.249 1.463-8.993 3.071-2.236 2.062-3.215 3.172-3.739 4.24-.323.66-.851 1.65-1.172 2.2-.788 1.351-.797 7.425-.013 8.8.313.55.85 1.605 1.193 2.345.745 1.611 3.578 4.455 4.438 4.455.337 0 .71.256.83.569.434 1.13 1.858 1.223 21.824 1.426 11.147.113 20.368.306 20.492.43.123.123.273.663.332 1.2l.109.975-15.439.2c-16.668.216-16.772.23-16.75 2.349l.01 1.051.682-1.1.682-1.1h15.446c17.331 0 17.189.024 16.576-2.769-.41-1.864.069-1.818-21.207-2.031l-20-.2-2.109-1.34c-7.925-5.035-8.993-13.794-2.419-19.849 2.513-2.315 7.29-4.016 10.098-3.595 2.428.364 3.159-.178 4.451-3.303 2.473-5.982 8.833-7.962 13.801-4.297 3.28 2.42 4.607 1.122 4.867-4.757.789-17.89 26.061-19.487 29.565-1.868.687 3.454 2.506 3.931 5.307 1.389 1.079-.979 2.114-1.78 2.3-1.78.186 0 .697-.358 1.135-.796 1.133-1.133 5.672-1.78 8.932-1.273 3.193.497 7.88 3.506 8.521 5.469.144.44.58 1.208.97 1.708 2.162 2.77 1.286 6.938-1.682 7.992-3.803 1.351-6.344 5.015-4.799 6.923l.787.972.738-1.34c3.502-6.363 11.725-5.708 16.523 1.315 1.827 2.674 2.122 9.206.514 11.38-.495.67-.9 1.368-.9 1.553 0 .59-2.936 3.132-5 4.329l-2 1.159-8.6.117c-10.397.141-10.286.121-11.067 1.99-1.124 2.692-.41 2.902 9.857 2.902 8.839 0 12.689-.384 13.41-1.338.22-.291.916-.658 1.546-.815.665-.165 2.391-1.559 4.11-3.317l2.963-3.032 3.212.281c1.767.154 3.877.57 4.69.925 2.194.957 20.394.975 22.533.023.799-.356 3.049-.772 5-.924 1.998-.155 4.245-.592 5.146-1.001.88-.398 2.751-.918 4.158-1.153 1.406-.236 2.846-.685 3.2-.998.353-.312 1.663-.776 2.911-1.031 1.248-.255 2.47-.705 2.715-1 .244-.295 1.05-.65 1.79-.789.74-.138 1.768-.581 2.285-.983.518-.403 1.613-.951 2.435-1.219.822-.268 1.595-.649 1.717-.847.122-.197 1.025-.714 2.006-1.148.98-.434 1.783-.96 1.783-1.168 0-.209.483-.5 1.073-.649.59-.148 1.568-.662 2.173-1.143a58.07 58.07 0 0 1 2.543-1.874c4.546-3.148 7.728-5.772 11.519-9.498 2.913-2.863 6.2-6.458 6.405-7.002.144-.385.408-.7.587-.7.178 0 1.039-1.011 1.912-2.246.873-1.236 1.993-2.702 2.488-3.259.495-.556.9-1.182.9-1.39 0-.208.37-.857.821-1.442 1.651-2.137 2.946-4.365 5.267-9.063 1.305-2.64 2.696-5.43 3.092-6.2.396-.77.856-2.027 1.022-2.794.167-.767.55-1.771.851-2.231.302-.461.742-1.903.979-3.206.236-1.303.705-2.798 1.043-3.322.337-.525.773-2.225.968-3.779.49-3.901-.438-3.635 13.676-3.919 14.785-.297 21.481-1.034 21.481-2.366 0-.176.549-.44 1.219-.587.671-.147 1.434-.612 1.696-1.032.263-.42.689-.764.947-.764.259 0 1.017-.585 1.686-1.3.669-.715 1.764-1.891 2.434-2.614.67-.722 1.218-1.555 1.218-1.851 0-.295.269-.76.597-1.033.329-.272.784-1.239 1.012-2.149.228-.909.719-2.193 1.092-2.853.943-1.668.987-8.789.063-10.217-.349-.541-.754-1.589-.899-2.33-.568-2.902-7.189-10.853-9.038-10.853-.387 0-1.014-.344-1.394-.763-.38-.42-1.218-.982-1.862-1.249-.644-.267-1.171-.513-1.171-.547 0-2.935-1.362-9.041-2.017-9.041-.176 0-.438-.541-.583-1.202-.255-1.157-.55-1.587-3.2-4.666-4.434-5.15-11.785-7.587-19.873-6.589-3.269.404-8.327 2.401-8.327 3.288 0 1.109-2.346.323-2.609-.874-.656-2.985-5.427-8.852-8.819-10.846-.645-.378-1.442-.853-1.772-1.055-4.776-2.92-15.262-3.866-19.6-1.768-.99.479-2.316 1.063-2.946 1.299-2.616.978-9.854 7.877-9.854 9.393 0 .282-.364.974-.808 1.539-.444.565-1.01 2.075-1.256 3.354-.247 1.28-.603 2.498-.792 2.707-.189.209-.344.772-.344 1.251 0 1.589-.95 1.943-3.219 1.201-2.629-.86-4.928-.886-7.298-.081-1.051.357-2.111.649-2.356.649-1.481 0-7.927 5.77-7.927 7.095 0 1.369-2.415 3.628-4.072 3.809-6.291.69-10.479 2.531-14.166 6.227-2.974 2.982-3.199 3.258-3.803 4.669-.283.66-.745 1.48-1.028 1.823-2.117 2.56-1.877 17.577.28 17.577.179 0 .446.551.594 1.224.26 1.183.715 1.778 3.858 5.052 1.816 1.892 4.285 3.724 5.018 3.724.303 0 1.039.351 1.635.78 4.069 2.93 53.074 2.704 53.985-.248.079-.258-.391-1.068-1.045-1.8l-1.19-1.332-24.133-.2-24.133-.2-2.3-1.184c-16.323-8.399-9.275-32.459 9.007-30.752 3.077.288 4.093-.46 4.523-3.327.144-.961.422-1.846.617-1.966.195-.121.719-1.019 1.164-1.995.445-.977.941-1.776 1.103-1.776.162 0 .742-.414 1.29-.921 2.63-2.43 9.502-2.798 12.467-.668.589.424 1.726 1.138 2.527 1.588l1.455.817 1.174-.835c1.339-.954 1.31-.846 1.204-4.581-.201-7.06 2.098-12.159 7.374-16.353 9.377-7.455 25.669-2.758 28.975 8.353.262.88.623 1.96.804 2.4.18.44.529 1.544.774 2.453.871 3.227 2.658 3.201 5.971-.089 3.425-3.4 6.832-4.658 12.183-4.498 5.45.162 7.657 1.047 11.55 4.629 5.008 4.608 6.544 13.643 2.433 14.315-.822.134-1.982.334-2.578.445-3.963.736-8.775 7.871-6.553 9.715.601.499 1.836-.762 1.836-1.876 0-1.447 4.761-5.197 6.945-5.47 8.281-1.034 14.942 3.67 17.094 12.074l.919 3.587-.893 3.558c-.971 3.865-2.34 6.205-5.004 8.557-1.462 1.29-2.336 1.856-5.061 3.278-.779.406-6.536.566-26 .722-13.75.11-25.302.349-25.672.532-1.753.866-1.561 3.571.304 4.28 2.267.862 1.02 2.679-4.021 5.856-1.106.697-2.461 1.618-3.011 2.047-.55.428-1.573.904-2.272 1.057-.7.154-1.486.537-1.747.851-.261.314-1.218.769-2.128 1.011-.909.242-1.923.675-2.253.962-.33.286-1.593.724-2.806.971-1.214.248-2.744.73-3.4 1.071-1.069.555-13.214 2.195-16.394 2.213-2.679.016-14.641-1.652-15.682-2.186-.615-.316-2.15-.786-3.411-1.046-1.261-.26-2.388-.627-2.505-.815-.116-.189-1.154-.65-2.307-1.025-1.152-.375-2.365-.899-2.695-1.165-.33-.265-1.23-.729-2-1.03-.77-.301-2.536-1.32-3.925-2.266-1.389-.945-2.615-1.718-2.724-1.718-.587 0-7.195-5.965-10.017-9.04-4.75-5.179-4.689-5.107-5.243-6.177-.602-1.165-2.202-3.517-3.019-4.437-.318-.359-.789-1.29-1.046-2.068s-.723-1.626-1.036-1.886c-.313-.26-.684-1.086-.825-1.836-.14-.749-.566-1.766-.947-2.259-.38-.494-.911-1.797-1.181-2.897-.269-1.1-.728-2.369-1.02-2.82-.292-.451-.732-2.117-.978-3.702-.246-1.584-.76-3.645-1.143-4.58-1.048-2.556-1.03-21.058.022-23 .388-.717.888-2.763 1.112-4.547.224-1.785.656-3.494.96-3.798.304-.305.768-1.588 1.031-2.852.262-1.265.81-2.723 1.217-3.241.408-.518.853-1.54.991-2.273.137-.732.492-1.425.788-1.538.296-.114.766-.981 1.043-1.928.278-.946.828-1.956 1.223-2.244.394-.287.724-.737.733-1 .009-.262.549-1.1 1.2-1.862.651-.762 1.184-1.707 1.184-2.1s.258-.715.573-.715c.315 0 .689-.365.83-.811.142-.446.694-1.096 1.227-1.446.534-.349.97-.811.97-1.025 0-.957 9.52-9.46 12.433-11.105 4.519-2.552 5.967-4.011 5.967-6.012 0-3.101-2.039-3.512-13.88-2.798m-81.87 10.201c-1.359 1.574-2.18 2.196-2.899 2.196-2.66 0-3.031 1.301-1.105 3.873.733.978.954 1.779.954 3.451 0 2.81.731 3.57 2.317 2.407 1.634-1.198 2.671-1.326 3.945-.486 2.434 1.604 3.881.711 3.488-2.154-.221-1.616-.1-2.049 1.044-3.744 1.421-2.106 1.296-3.049-.435-3.269-2.384-.304-3.504-.919-3.755-2.059-.566-2.578-1.467-2.633-3.554-.215m78.325-.504-1.175 1.3 1.3-1.175c.715-.646 1.3-1.231 1.3-1.3 0-.309-.33-.037-1.425 1.175m-75.429.872c.781 1.765 2.264 2.619 4.564 2.626.831.002.097 1.835-1.383 3.456-.68.744-.732 1.116-.409 2.894l.37 2.039-1.044-.249c-.574-.137-1.347-.404-1.718-.593-1.159-.593-2.975-.379-4.068.481-1.472 1.158-1.901.696-1.626-1.75.204-1.813.102-2.251-.799-3.454-1.435-1.914-1.343-2.675.361-2.994 1.465-.275 3.386-1.808 4.17-3.328.621-1.204.678-1.173 1.582.872m71.035 3.528-1.581 1.7 1.7-1.581c1.581-1.471 1.884-1.819 1.581-1.819-.065 0-.83.765-1.7 1.7m-63.258 2.187c-1.766.88-2.232 2.278-2.064 6.196l.141 3.317-1.149-.082c-.631-.045-1.453-.358-1.826-.695-2.116-1.915-6.473-1.797-8.673.235-1.519 1.404-2.785.684-2.612-1.486.208-2.624-.154-3.643-1.38-3.878-1.014-.193-1.04-.151-.767 1.253.155.799.365 1.993.466 2.653.418 2.723.533 2.935 1.739 3.2 1.455.319 3.856-.411 4.371-1.33.534-.953 4.997-.932 5.724.026 2.192 2.889 7.169 1.01 5.515-2.081-.216-.403-.434-1.738-.486-2.967-.101-2.426.132-2.767 2.778-4.053.715-.348 1.3-.714 1.3-.814 0-.4-1.877-.092-3.077.506m87.542 5.446c-.711.734-1.463 1.949-1.672 2.7-.664 2.393-2.119 3.567-4.422 3.567-2.318 0-4.771.898-4.771 1.747 0 .323-.089.827-.197 1.12-.109.293.971 1.779 2.4 3.303 2.805 2.991 2.9 3.27 1.997 5.83-1.654 4.689 1.533 6.944 5.561 3.934 1.642-1.226 4.274-1.217 5.59.02 2.894 2.719 6.835 1.002 5.659-2.465-1.209-3.566-1.027-4.341 1.711-7.268 3.724-3.981 3.189-5.727-1.899-6.193-3.088-.283-4.822-1.431-4.822-3.193 0-.902-2.66-4.435-3.34-4.435-.277 0-1.085.6-1.795 1.333m3.194 2.267c.558.77 1.136 1.893 1.284 2.495.383 1.554 1.749 2.288 4.787 2.571 3.873.362 4.205 1.479 1.323 4.451l-2.053 2.117v8.166l-1.328-.062c-.731-.034-1.541-.329-1.8-.656-1.392-1.751-6.077-1.677-7.88.126-.435.435-1.107.789-1.492.786-1.445-.013-1.601-.467-1.19-3.461.492-3.585.276-4.442-1.609-6.38-3.413-3.511-3.197-4.698.928-5.083 3.223-.301 4.438-1.081 5.002-3.214.447-1.69 2.326-4.106 2.768-3.559.135.167.702.933 1.26 1.703m-63.059.26c-1.205 1.076-1.295 1.225-.364.603 1.105-.739 2.496-2.087 2.113-2.048-.082.008-.869.658-1.749 1.445m-54.905-.394c-.277.112-.692.593-.922 1.069-.357.741-.34.779.123.265.297-.33.793-.825 1.102-1.1.589-.524.531-.569-.303-.234m114.808 4.309c-.815 1.156-1.67 1.887-2.386 2.041-3.168.679-3.763 2.206-1.711 4.391.596.633.794 1.401.794 3.07 0 3.101.664 3.606 3.064 2.333 1.68-.892 1.857-.911 2.863-.32 2.811 1.653 4.073 1.015 4.073-2.06 0-1.739.207-2.585.824-3.369.453-.576.858-1.536.9-2.134.079-1.126.131-1.094-3.224-2.036-.715-.201-1.389-.865-1.927-1.9-1.113-2.143-1.769-2.146-3.27-.016m2.644.429c.549 1.518 2.143 2.596 3.841 2.596 1.224 0 1.111 1.376-.274 3.345-.655.932-.757 1.51-.546 3.1.299 2.25-.207 2.496-2.694 1.31-1.279-.61-1.459-.599-3.276.204-2.315 1.025-2.369.985-2.246-1.679.076-1.626-.091-2.349-.727-3.157-1.374-1.747-1.111-2.975.698-3.264 1.519-.243 2.761-1.253 3.641-2.959.641-1.243.992-1.131 1.583.504m-123.452-.738c-.277.112-.692.593-.922 1.069-.357.741-.34.779.123.265.297-.33.793-.825 1.102-1.1.589-.524.531-.569-.303-.234M155.2 127.4c-.972.99-1.677 1.8-1.567 1.8.11 0 .995-.81 1.967-1.8.972-.99 1.677-1.8 1.567-1.8-.11 0-.995.81-1.967 1.8m-.271 12.7c-.445.495-.953 1.17-1.128 1.5-.338.637-.246.55 1.375-1.3.53-.605.873-1.1.763-1.1-.11 0-.564.405-1.01.9m23.199 15.5c0 1.43.073 2.015.161 1.3.089-.715.089-1.885 0-2.6-.088-.715-.161-.13-.161 1.3m-100.299 6.229c-.78.78-.799 1.011-.06.728.313-.121.667-.475.788-.788.283-.739.052-.72-.728.06m-6 2c-.78.78-.799 1.011-.06.728.313-.121.667-.475.788-.788.283-.739.052-.72-.728.06m106.295 1.571c.002 1.32.077 1.812.166 1.093.089-.719.087-1.799-.004-2.4s-.164-.013-.162 1.307m89.78-.269c-3.013 1.442-5.193 3.619-7.13 7.122l-1.578 2.852-1.685-.581c-2.884-.993-8.152.896-9.648 3.46-.862 1.478-2.049 2.016-4.453 2.016-4.832 0-11.41 5.859-11.41 10.163 0 1.246.962 2.077 1.571 1.357.843-.996 2.429-3.558 2.429-3.924 0-.568 2.424-3.196 2.947-3.196.256 0 1.137-.36 1.957-.8 1.041-.558 2.257-.8 4.018-.8 2.807 0 3.328-.277 4.864-2.586.741-1.114 1.672-1.846 3.127-2.462l2.072-.876 2.607.982c1.434.539 2.776 1.15 2.982 1.356.699.699 1.826-.835 1.826-2.484 0-4.498 4.833-9.213 10.537-10.279 4.011-.749 3.649-2.465-.513-2.435-1.576.012-2.893.337-4.52 1.115m5.196-.055c-.385.1-1.015.1-1.4 0-.385-.101-.07-.183.7-.183s1.085.082.7.183m56.2 6.006a5.661 5.661 0 0 1-1.8 0c-.495-.095-.09-.173.9-.173s1.395.078.9.173M56 172.272c-.887.938-.903 1.006-.147.604.469-.25.958-.729 1.087-1.065.314-.817.228-.775-.94.461m84.516 3.204c-.487.948-.816 1.724-.733 1.724.305 0 1.879-2.811 1.75-3.125-.073-.177-.531.453-1.017 1.401m120.874 1.755c-.189.597-.413.65-1.36.319l-1.134-.395 1.052-1.077c1.144-1.172 1.97-.512 1.442 1.153m-13.933 3.845c-.283.283-4.324.187-4.624-.11-.091-.091.974-.166 2.367-.166s2.409.124 2.257.276M128.144 191.6c0 2.09.068 2.945.15 1.9a29.38 29.38 0 0 0 0-3.8c-.082-1.045-.15-.19-.15 1.9m61.495 8.176c.462.783.917 1.424 1.011 1.424.284 0-1.014-2.331-1.448-2.599-.222-.137-.025.392.437 1.175M198.6 210.8c.859.88 1.652 1.6 1.762 1.6.11 0-.503-.72-1.362-1.6-.859-.88-1.652-1.6-1.762-1.6-.11 0 .503.72 1.362 1.6m46.3 20.276c.385.1 1.015.1 1.4 0 .385-.101.07-.183-.7-.183s-1.085.082-.7.183m3.2 0c.385.1 1.015.1 1.4 0 .385-.101.07-.183-.7-.183s-1.085.082-.7.183m-46.154 7.148c-.579.304-1.413 1.162-1.852 1.906-.622 1.055-1.14 1.407-2.356 1.602-2.891.462-3.124.976-1.468 3.24 1.214 1.659 1.449 2.316 1.486 4.154.057 2.801.78 3.389 2.556 2.076 1.281-.947 4.104-.955 4.418-.011.171.511 2.341.542 2.652.037.127-.204.018-1.165-.241-2.134-.433-1.616-.4-1.835.394-2.629.476-.476.865-1.038.865-1.249 0-.212.387-.746.861-1.187.948-.884.493-2.027-.81-2.031-2.045-.007-3.605-.847-4.044-2.177-.628-1.903-1.187-2.266-2.461-1.597m1.921 2.076c.651 1.331.989 1.561 3.015 2.042l2.281.542-1.617 2.189c-1.169 1.583-1.554 2.44-1.39 3.093.377 1.504-.6 2.436-2.031 1.938-1.349-.471-3.119-.243-4.357.559-1.125.73-1.368.365-1.368-2.051 0-1.676-.233-2.371-1.262-3.771-1.388-1.887-1.176-2.423.962-2.435.625-.003 1.453-.394 1.919-.906 2.921-3.21 2.873-3.195 3.848-1.2m-35.767 1.576c.385.1 1.015.1 1.4 0 .385-.101.07-.183-.7-.183s-1.085.082-.7.183m-12.8 2.4c.385.1 1.015.1 1.4 0 .385-.101.07-.183-.7-.183s-1.085.082-.7.183m54.793 8.524c0 .77.082 1.085.183.7.1-.385.1-1.015 0-1.4-.101-.385-.183-.07-.183.7m-8.06.544c.092.079.707.264 1.367.412.876.196 1.038.159.6-.138-.54-.365-2.368-.62-1.967-.274m6.274 26.546c.719.089 1.799.087 2.4-.004s.013-.164-1.307-.162c-1.32.002-1.812.077-1.093.166m10.593-.003a8.899 8.899 0 0 0 2.2 0c.605-.092.11-.167-1.1-.167-1.21 0-1.705.075-1.1.167m-80.548 8.613c-2.238 1.86-1.319 4.3 1.619 4.3 2.049 0 2.987-.904 2.661-2.565-.288-1.466-1.194-2.235-2.632-2.235-.576 0-1.318.225-1.648.5m7.957.2c-2.199 2.504-.985 4.1 3.12 4.1 4.38 0 5.582-.859 4.399-3.146-.923-1.785-6.201-2.455-7.519-.954m5.841 1.248c1.352 1.411.956 1.652-2.716 1.652-2.856 0-2.987-.066-2.734-1.388.343-1.795 3.821-1.964 5.45-.264m-10.816.121c.312 1.192.016 1.531-1.334 1.531s-1.646-.339-1.334-1.531c.164-.628.534-.869 1.334-.869s1.17.241 1.334.869" fill="#8c8480"/>
    </g>
</svg>
