<svg width="51" height="50" viewBox="0 0 51 50" fill="none" xmlns="http://www.w3.org/2000/svg">
    <path fill="#000" d="M0 0h51v50H0z"/>
    <g filter="url(#selected-card-icon_svg__filter0_d)">
        <path d="M37.741 19.37a12.371 12.371 0 1 1-24.742 0 12.371 12.371 0 0 1 24.742 0zm-6.139-4.685a1.158 1.158 0 0 0-1.67.034l-5.37 6.843-3.236-3.238a1.16 1.16 0 0 0-1.64 1.639l4.092 4.093a1.16 1.16 0 0 0 1.669-.03l6.172-7.717a1.16 1.16 0 0 0-.015-1.624h-.002z" fill="#52FF00"/>
    </g>
    <path d="m10.928 40.795-1.174-.414c-.434-.158-.743-.372-.93-.642-.185-.27-.278-.625-.278-1.064 0-.643.155-1.07.465-1.285.315-.22.867-.33 1.655-.33.744 0 1.383.077 1.918.229l-.084.879a54.475 54.475 0 0 0-1.825-.026c-.338 0-.563.031-.676.093-.113.056-.169.203-.169.44 0 .191.042.329.127.413.084.085.245.167.481.245l1.107.38c.45.158.769.375.955.651.186.27.278.625.278 1.065 0 .653-.157 1.098-.473 1.334-.315.231-.878.347-1.69.347a9.438 9.438 0 0 1-2.001-.22l.076-.93c1.2.029 1.841.043 1.926.043.343 0 .572-.036.684-.11.118-.073.177-.225.177-.456 0-.197-.039-.335-.118-.414-.079-.084-.222-.16-.43-.228zm5.34.54h-1.504c.04.305.13.51.27.617.147.102.386.153.719.153.445 0 .963-.031 1.554-.093l.118.777c-.433.208-1.039.312-1.816.312-.783 0-1.34-.169-1.673-.507-.332-.337-.498-.895-.498-1.672 0-.817.16-1.389.481-1.715.327-.327.873-.49 1.64-.49.692 0 1.193.12 1.503.363.31.237.468.6.473 1.09 0 .388-.101.681-.304.878-.197.192-.518.288-.963.288zm-1.53-.751h1.184c.152 0 .253-.037.304-.11a.52.52 0 0 0 .084-.321c0-.197-.05-.332-.152-.406-.101-.078-.287-.118-.558-.118-.32 0-.54.065-.658.194-.119.124-.186.378-.203.76zm4.855-3.498v4.554c0 .281.158.422.473.422h.338l.144.87c-.214.113-.547.17-.997.17-.372 0-.665-.1-.879-.296-.214-.203-.321-.487-.321-.854v-4.866h1.242zm4.166 4.25h-1.504c.04.304.13.51.27.616.147.102.387.153.719.153.445 0 .963-.031 1.554-.093l.119.777c-.434.208-1.04.312-1.817.312-.783 0-1.34-.169-1.673-.507-.332-.337-.498-.895-.498-1.672 0-.817.16-1.389.482-1.715.326-.327.873-.49 1.638-.49.693 0 1.195.12 1.504.363.31.237.468.6.473 1.09 0 .388-.1.681-.304.878-.197.192-.518.288-.963.288zm-1.529-.752h1.183c.152 0 .253-.037.304-.11a.52.52 0 0 0 .084-.321c0-.197-.05-.332-.152-.406-.101-.078-.287-.118-.557-.118-.321 0-.54.065-.66.194-.117.124-.185.378-.202.76zm7.017 1.428.11.81c-.428.186-.966.28-1.614.28-.766 0-1.306-.164-1.622-.49-.31-.333-.465-.899-.465-1.699 0-.805.158-1.371.474-1.698.315-.332.858-.498 1.63-.498.63 0 1.143.087 1.538.262l-.135.777a82.86 82.86 0 0 0-1.192-.017c-.383 0-.647.082-.794.245-.14.163-.211.473-.211.93 0 .456.07.765.211.929.147.163.411.245.794.245.49 0 .916-.026 1.276-.076zm2.49-2.34v1.968c0 .157.035.267.102.33.068.061.186.092.355.092h.532l.135.87c-.32.113-.712.17-1.174.17-.377 0-.67-.105-.879-.313-.208-.214-.312-.51-.312-.887v-2.23h-.735v-.795l.735-.042v-1.166h1.242v1.166h1.157v.836h-1.157zm4.505 1.664h-1.504c.04.304.13.51.27.616.147.102.386.153.718.153.445 0 .964-.031 1.555-.093l.118.777c-.433.208-1.039.312-1.816.312-.783 0-1.34-.169-1.673-.507-.332-.337-.498-.895-.498-1.672 0-.817.16-1.389.481-1.715.327-.327.873-.49 1.64-.49.692 0 1.193.12 1.503.363.31.237.468.6.473 1.09 0 .388-.101.681-.304.878-.197.192-.518.288-.963.288zm-1.53-.752h1.183c.152 0 .254-.037.305-.11a.52.52 0 0 0 .084-.321c0-.197-.05-.332-.152-.406-.101-.078-.287-.118-.558-.118-.32 0-.54.065-.658.194-.119.124-.186.378-.203.76zm7.592-3.498V43h-.988l-.102-.608c-.4.473-.93.71-1.588.71-.518 0-.895-.186-1.132-.558-.231-.378-.346-.932-.346-1.664 0-.8.13-1.36.388-1.682.26-.32.662-.481 1.208-.481.535 0 .986.124 1.352.371-.028-.31-.042-.6-.042-.87v-1.132h1.25zm-1.25 4.647v-1.926c-.378-.108-.673-.161-.887-.161-.282 0-.476.079-.583.237-.102.157-.152.487-.152.988 0 .479.05.8.152.963.101.158.281.237.54.237.175 0 .324-.023.448-.068.124-.05.285-.14.482-.27z" fill="#fff"/>
    <defs>
        <filter id="selected-card-icon_svg__filter0_d" x="10.586" y="4.586" width="29.569" height="29.569" filterUnits="userSpaceOnUse" color-interpolation-filters="sRGB">
            <feFlood flood-opacity="0" result="BackgroundImageFix"/>
            <feColorMatrix in="SourceAlpha" values="0 0 0 0 0 0 0 0 0 0 0 0 0 0 0 0 0 0 127 0"/>
            <feOffset/>
            <feGaussianBlur stdDeviation="1.207"/>
            <feColorMatrix values="0 0 0 0 0 0 0 0 0 0 0 0 0 0 0 0 0 0 0.25 0"/>
            <feBlend in2="BackgroundImageFix" result="effect1_dropShadow"/>
            <feBlend in="SourceGraphic" in2="effect1_dropShadow" result="shape"/>
        </filter>
    </defs>
</svg>
